<?xml version="1.0" encoding="UTF-8"?>
<svg id="Layer_1" data-name="Layer 1" xmlns="http://www.w3.org/2000/svg" viewBox="0 0 939.42 316.24">
  <defs>
    <style>
      .cls-1 {
        stroke: #000;
      }

      .cls-1, .cls-2 {
        stroke-miterlimit: 10;
        stroke-width: 5px;
      }

      .cls-1, .cls-2, .cls-3 {
        fill: #fff;
      }

      .cls-2 {
        stroke: #231f20;
      }
    </style>
  </defs>
  <g>
    <g>
      <path d="M845.41,167.58c-.23-.37-.48-.72-.75-1.05-.07-.12-.12-.25-.2-.38-.23-.37-.48-.72-.75-1.06-.07-.12-.12-.25-.2-.37-.23-.37-.48-.72-.75-1.06-.07-.12-.12-.25-.2-.37-.23-.37-.48-.72-.75-1.06-.07-.12-.12-.25-.2-.37-.23-.37-.48-.72-.75-1.06-.07-.12-.12-.25-.2-.37-.23-.37-.48-.72-.75-1.06-.07-.12-.12-.25-.2-.37-.23-.37-.48-.72-.75-1.06-.07-.12-.12-.25-.2-.37-.23-.37-.48-.72-.75-1.06-.07-.12-.12-.25-.2-.37-.23-.37-.48-.72-.75-1.06-.07-.12-.12-.25-.2-.37-.23-.37-.48-.72-.75-1.06-.07-.12-.12-.25-.2-.37-.23-.37-.48-.72-.75-1.06-.07-.12-.12-.25-.2-.37-.23-.37-.48-.72-.75-1.06-.07-.12-.12-.25-.2-.37-.23-.37-.48-.72-.75-1.06-.07-.12-.12-.25-.2-.37-.23-.37-.48-.72-.75-1.06-.07-.12-.12-.25-.2-.37-.23-.37-.48-.72-.75-1.06-.07-.12-.12-.25-.2-.37-.23-.37-.48-.72-.75-1.06-.07-.12-.12-.25-.2-.37-.23-.37-.48-.72-.75-1.06-.07-.12-.12-.25-.2-.37-.23-.37-.48-.72-.75-1.06-.07-.12-.12-.25-.2-.37-.23-.37-.48-.72-.75-1.06-.07-.12-.12-.25-.2-.37-.23-.37-.48-.72-.75-1.06-.07-.12-.12-.25-.2-.37-.23-.37-.48-.72-.75-1.06-.07-.12-.12-.25-.2-.37-1.81-2.91-4.98-4.69-8.76-4.88-.19,0-.37-.01-.57-.01-5.57,0-11.24,2.98-14.44,7.6l-.07.1c-.57.86-1.61,1.4-1.98,1.44h-1.73c-1.64,0-3.33.37-4.96,1.04.1-1.29-.03-2.58-.41-3.81l-.07-.22-.09-.22c-.35-.88-.83-1.68-1.42-2.39-.28-.51-.59-.99-.95-1.43-.28-.51-.59-.99-.95-1.43-.28-.51-.59-.99-.95-1.43-.28-.51-.59-.99-.95-1.43-.28-.51-.59-.99-.95-1.43-.28-.51-.59-.99-.95-1.43-.28-.51-.59-.99-.95-1.43-.28-.51-.59-.99-.95-1.43-.28-.51-.59-.99-.95-1.43-.28-.51-.59-.99-.95-1.43-.28-.51-.59-.99-.95-1.43-.28-.51-.59-.99-.95-1.43-.28-.51-.59-.99-.95-1.43-.28-.51-.59-.99-.95-1.43-.28-.51-.59-.99-.95-1.43-.28-.51-.59-.99-.95-1.43-.28-.51-.59-.99-.95-1.43-.28-.51-.59-.99-.95-1.43-.28-.51-.59-.99-.95-1.43-.28-.51-.59-.99-.95-1.43-1.53-2.82-4.47-4.65-7.93-4.82-.19,0-.38-.01-.57-.01-2.68,0-5.53.96-8.01,2.69l-47.48,33.3c-.1-.14-.2-.29-.31-.43-.28-.5-.59-.98-.95-1.43-.28-.5-.59-.98-.95-1.43-.28-.5-.59-.98-.95-1.43-.28-.5-.59-.98-.95-1.43-.28-.5-.59-.98-.95-1.43-.28-.5-.59-.98-.95-1.43-.28-.5-.59-.98-.95-1.43-.3-.54-.63-1.06-1.03-1.54-2.04-2.46-5.09-3.82-8.6-3.82-1,0-2.04.11-3.08.34-6.81,1.46-12.85,7.38-14.07,13.78-.31,1.62-.3,3.2.01,4.68-1.98.05-3.99.41-5.96,1.02l-3.37-5.87c-.23-.4-.5-.78-.78-1.13l-.17-.3c-.23-.4-.5-.78-.78-1.13l-.17-.3c-.23-.4-.5-.78-.78-1.13l-.17-.3c-.23-.4-.5-.78-.78-1.13l-.17-.3c-.23-.4-.5-.78-.78-1.13l-.17-.3c-.23-.4-.5-.78-.78-1.13l-.17-.3c-.23-.4-.5-.78-.78-1.13l-.17-.3c-.23-.4-.5-.78-.78-1.13l-.17-.3c-.23-.4-.5-.78-.78-1.13l-.17-.3c-.23-.4-.5-.78-.78-1.13l-.17-.3c-.23-.4-.5-.78-.78-1.13l-.17-.3c-.23-.4-.5-.78-.78-1.13l-.17-.3c-.23-.4-.5-.78-.78-1.13l-.17-.3c-.23-.4-.5-.78-.78-1.13l-.17-.3c-.23-.4-.5-.78-.78-1.13l-.17-.3c-.23-.4-.5-.78-.78-1.13l-.17-.3c-.23-.4-.5-.78-.78-1.13l-.17-.3c-.23-.4-.5-.78-.78-1.13l-.17-.3c-.23-.4-.5-.78-.78-1.13l-.17-.3c-.23-.4-.5-.78-.78-1.13l-.17-.3c-.23-.4-.5-.78-.78-1.13l-.17-.3c-1.66-2.89-4.8-4.62-8.4-4.62-.28,0-.56,0-.85.03-2.94.21-5.93,1.5-8.47,3.68-4.82,4.23-6.31,10.3-3.66,14.8l12.03,20.95h-39.31c-5.02.05-10.23,2.09-14.56,5.4-.28-.38-.58-.74-.91-1.09-2.59-2.78-6.39-4.32-10.69-4.32h-46.96c-1.19,0-2.41.12-3.63.35.06-1.1-.04-2.2-.34-3.25l-.04-.14c-.35-1.11-.91-2.1-1.61-2.97-.27-.51-.59-.99-.95-1.43-.27-.51-.59-.99-.95-1.43-.27-.51-.59-.99-.95-1.43-.27-.51-.59-.99-.95-1.43-.27-.51-.59-.99-.95-1.43-.27-.51-.59-.99-.95-1.43-.27-.51-.59-.98-.95-1.43-.27-.51-.59-.99-.95-1.43-.27-.51-.59-.99-.95-1.43-.27-.51-.59-.99-.95-1.43-.27-.51-.59-.99-.95-1.43-.27-.51-.59-.99-.95-1.43-.27-.51-.59-.99-.95-1.43-.27-.51-.59-.99-.95-1.43-.27-.51-.59-.99-.95-1.43-.27-.51-.59-.99-.95-1.43-.27-.51-.59-.99-.95-1.43-.27-.51-.59-.99-.95-1.43-.27-.51-.59-.99-.95-1.43-.27-.51-.59-.99-.95-1.43-1.47-2.78-4.27-4.6-7.67-4.86-.28-.02-.57-.03-.86-.03-2.69,0-5.53.96-8.01,2.69l-48.68,34.15c-5.13,3.6-8.5,9.07-8.8,14.27l-.49,8.69c-.03.26-.35,1.02-1.16,1.86-.27-.45-.56-.89-.87-1.3-.29-.5-.61-.98-.95-1.43-.29-.5-.61-.98-.95-1.43-.29-.5-.61-.98-.95-1.43-.29-.5-.61-.98-.95-1.43-.29-.5-.61-.98-.95-1.43-.29-.5-.61-.98-.95-1.43-.29-.5-.61-.98-.95-1.43-.29-.5-.61-.98-.95-1.43-.29-.5-.61-.98-.95-1.43-.29-.5-.61-.98-.95-1.43-2.43-4.21-6.93-6.62-12.4-6.62h-39.59c-.19-.3-.41-.59-.63-.87-.27-.5-.59-.98-.95-1.43-.27-.5-.59-.98-.95-1.43-.31-.57-.66-1.11-1.09-1.61-2.06-2.41-5.34-3.79-9-3.79-.19,0-.37,0-.62.01-6.24.3-12.58,4.75-15.3,10.7-1.57-1.02-3.47-1.58-5.52-1.58h-20.61c-.19-.3-.41-.59-.63-.87-.27-.5-.59-.98-.95-1.43-.27-.5-.59-.98-.95-1.43-.31-.57-.66-1.11-1.09-1.61-2.06-2.41-5.34-3.79-8.99-3.79-.19,0-.37,0-.62.01-3.36.16-6.74,1.54-9.58,3.7-.13-.19-.25-.38-.39-.55l-.17-.3c-.23-.4-.5-.77-.78-1.13l-.17-.3c-.23-.4-.5-.77-.78-1.13l-.17-.3c-.23-.4-.5-.77-.78-1.13l-.17-.3c-.23-.4-.5-.77-.78-1.13l-.17-.3c-.23-.4-.5-.77-.78-1.13l-.17-.3c-.23-.4-.5-.77-.78-1.13l-.17-.3c-.23-.4-.5-.77-.78-1.13l-.17-.3c-.23-.4-.5-.77-.78-1.13l-.17-.3c-.23-.4-.5-.77-.78-1.13l-.17-.3c-.23-.4-.5-.77-.78-1.13l-.17-.3c-.23-.4-.5-.77-.78-1.13l-.17-.3c-.23-.4-.5-.77-.78-1.13l-.17-.3c-.23-.4-.5-.77-.78-1.13l-.17-.3c-.23-.4-.5-.77-.78-1.13l-.17-.3c-.23-.4-.5-.77-.78-1.13l-.17-.3c-.23-.4-.5-.77-.78-1.13l-.17-.3c-.23-.4-.5-.77-.78-1.13l-.17-.3c-.23-.4-.5-.77-.78-1.13l-.17-.3c-.23-.4-.5-.77-.78-1.13l-.17-.3c-.23-.4-.5-.77-.78-1.13l-.17-.3c-1.66-2.89-4.8-4.62-8.4-4.62-.28,0-.56,0-.84.03-2.94.21-5.93,1.5-8.47,3.68-4.82,4.23-6.31,10.3-3.66,14.8l12.03,20.95h-39.31c-2.28.02-4.6.46-6.86,1.24-.1-.13-.19-.27-.29-.39-.28-.5-.59-.98-.95-1.43-.28-.5-.59-.98-.95-1.43-.28-.5-.59-.98-.95-1.43-.28-.5-.59-.98-.95-1.43-.28-.5-.59-.98-.95-1.43-.28-.5-.59-.98-.95-1.43-.28-.5-.59-.98-.95-1.43-.28-.5-.59-.98-.95-1.43-.28-.5-.59-.98-.95-1.43-.28-.5-.59-.98-.95-1.43-.3-.54-.63-1.05-1.03-1.53-2.04-2.46-5.09-3.82-8.6-3.82-1,0-2.04.11-3.08.34-6.8,1.46-12.85,7.38-14.06,13.78-.31,1.62-.3,3.2.01,4.68-2.25.05-4.52.5-6.74,1.28h0c-.23-.41-.5-.79-.78-1.14l-.17-.3c-.23-.4-.5-.77-.78-1.13l-.17-.3c-.23-.4-.5-.78-.78-1.13l-.17-.3c-.23-.4-.5-.77-.78-1.13l-.17-.3c-.23-.4-.5-.77-.78-1.13l-.17-.3c-.23-.4-.5-.77-.78-1.13l-.17-.3c-.23-.4-.5-.77-.78-1.13l-.17-.3c-.23-.4-.5-.77-.78-1.13l-.17-.3c-.23-.4-.5-.77-.78-1.13l-.17-.3c-.23-.4-.5-.78-.78-1.13l-.17-.3c-.23-.4-.5-.77-.78-1.13l-.17-.3c-.23-.4-.5-.77-.78-1.13l-.17-.3c-.23-.4-.5-.77-.78-1.13l-.17-.3c-.23-.4-.5-.78-.78-1.13l-.17-.3c-1.66-2.89-4.8-4.62-8.4-4.62-.28,0-.56,0-.85.03-2.94.21-5.93,1.5-8.47,3.68-4.81,4.23-6.31,10.3-3.66,14.79l2.78,4.84h-39.36c-6.01,0-12.57,2.95-17.56,7.9-5.29,5.25-7.9,11.84-7,17.63.35,2.26,1.23,4.26,2.5,5.93.28.5.61.97.95,1.43.28.5.61.97.95,1.43.28.5.61.97.95,1.43.28.5.61.97.95,1.43.28.5.61.97.95,1.43.28.5.61.97.95,1.43.28.5.61.97.95,1.43.28.5.61.97.95,1.43.28.5.61.97.95,1.43.28.5.61.97.95,1.43.28.5.61.97.95,1.43.28.5.61.97.95,1.43.28.5.61.97.95,1.43.28.5.61.97.95,1.43.28.5.61.97.95,1.43.28.5.61.97.95,1.43.28.5.61.97.95,1.43.28.5.61.97.95,1.43.28.5.61.97.95,1.43.28.5.61.97.95,1.43,2.35,4.16,6.92,6.74,12.46,6.74h39.7c.19.3.41.6.64.88.28.5.59.98.95,1.43.28.5.59.98.95,1.43.3.55.64,1.08,1.05,1.57,2.06,2.43,5.35,3.83,9.02,3.83.19,0,.37,0,.62-.01,6.42-.31,12.94-5.01,15.52-11.22.16-.39.3-.78.42-1.17,2.47,2.07,5.77,3.23,9.48,3.27h24.52c3.18,0,6.4-1.29,8.99-3.42,2.49,2.17,5.85,3.39,9.66,3.42h39.59c.19.3.4.6.64.88.28.5.59.98.95,1.43.28.5.59.98.95,1.43.3.55.64,1.08,1.05,1.57,2.06,2.44,5.35,3.83,9.02,3.83.19,0,.37,0,.62-.01,3.36-.16,6.74-1.54,9.58-3.7.13.19.25.38.39.55l.17.3c.23.4.5.77.78,1.13l.17.3c.23.4.5.77.78,1.13l.17.3c.23.4.5.77.78,1.13l.17.3c.23.4.5.78.78,1.13l.17.3c.23.4.5.77.78,1.13l.17.3c.23.4.5.77.78,1.13l.17.3c.23.4.5.77.78,1.13l.17.3c.23.4.5.77.78,1.13l.17.3c.23.4.5.77.78,1.13l.17.3c.23.4.5.77.78,1.13l.17.3c.23.4.5.78.78,1.13l.17.3c.23.4.5.77.78,1.13l.17.3c.23.4.5.77.78,1.13l.17.3c.23.4.5.78.78,1.13l.17.3c.23.4.5.77.78,1.13l.17.3c.23.4.5.77.78,1.13l.17.3c.23.4.5.77.78,1.13l.17.3c.23.4.5.77.78,1.13l.17.3c.23.4.5.77.78,1.13l.17.3c.23.4.5.77.78,1.13l.17.3c1.66,2.89,4.8,4.62,8.4,4.62.18,0,.37,0,.56-.01,2.85-.14,5.8-1.31,8.29-3.31l.16-.13c4.9-4.22,6.55-10.38,3.96-15.06l-4.13-7.2h13.91c5.48,0,11.09-3.84,13.34-9.13.82-1.93,1.11-3.9.88-5.74,1.62.73,3.47,1.12,5.45,1.12h9.68c2.32,0,4.66-.69,6.76-1.88,1.64,1.22,3.7,1.88,5.96,1.88h29.79c6.64,0,13.75-3.58,18.72-8.96.06.11.11.24.18.35.23.37.48.72.75,1.05.07.12.12.25.2.37.23.37.48.72.75,1.05.07.12.12.25.2.37.23.37.48.72.75,1.05.07.12.12.25.2.37.23.37.48.72.75,1.05.07.12.12.25.2.37.23.37.48.72.75,1.05.07.12.12.25.2.37.23.37.48.72.75,1.05.07.12.12.25.2.37.23.37.48.72.75,1.05.07.12.12.25.2.37.23.37.48.72.75,1.05.07.12.12.25.2.37.23.37.48.72.75,1.06.07.12.12.25.2.37,1.81,2.92,4.98,4.69,8.76,4.88.18,0,.37.01.56.01,5.62,0,11.31-3.02,14.54-7.75.56-.83,1.56-1.36,1.84-1.39h43.65c5.04-.05,10.26-2.1,14.59-5.43,2.54,3.45,6.67,5.41,11.6,5.42h46.96c5.01,0,10.43-2.05,15.01-5.5,2.51,3.46,6.68,5.46,11.57,5.51h39.59c.19.3.41.6.64.88.28.5.59.98.95,1.43.28.5.59.98.95,1.43.3.55.64,1.08,1.05,1.57,2.06,2.43,5.35,3.83,9.02,3.83.19,0,.37,0,.62-.01,6.42-.31,12.94-5.01,15.52-11.22.16-.39.3-.77.42-1.16,2.47,2.07,5.76,3.22,9.47,3.26,0,0,17.67,0,23.09,0,.01.01.02.03.03.04.07.13.13.26.21.38.23.37.48.72.75,1.05.07.13.13.26.21.38.23.37.48.72.75,1.05.07.13.13.26.21.38.23.37.48.72.75,1.05.07.13.13.26.21.38,1.81,2.92,4.98,4.69,8.76,4.88.19,0,.38.01.57.01,5.57,0,11.24-2.98,14.44-7.6l.07-.1c.57-.86,1.6-1.4,1.97-1.44h6.66c.02.94.16,1.87.44,2.77l.07.22.08.21c.35.88.83,1.68,1.42,2.39.28.51.59.99.95,1.43.28.51.59.99.95,1.43.28.51.59.99.95,1.43.28.51.59.99.95,1.43.28.51.59.99.95,1.43.28.51.59.99.95,1.43.28.51.59.99.95,1.43.28.51.59.99.95,1.43.28.51.59.99.95,1.43.28.51.59.99.95,1.43.28.51.59.99.95,1.43.28.51.59.99.95,1.43.28.51.59.99.95,1.43.28.51.59.99.95,1.43.28.51.59.99.95,1.43.28.51.59.99.95,1.43.28.51.59.99.95,1.43.28.51.59.99.95,1.43.28.51.59.99.95,1.43.28.51.59.99.95,1.43,1.53,2.82,4.47,4.65,7.93,4.82.19,0,.38.01.57.01,2.68,0,5.53-.96,8.01-2.69l48.68-34.15c5.13-3.6,8.5-9.07,8.8-14.27l.5-8.83c.05-.32.57-1.42,1.95-2.44,2.5-1.91,4.52-4.41,5.71-7.1,1.69-3.88,1.55-7.89-.38-11ZM783.58,155.62h-.46l.47-.33c0,.11-.02.22-.01.33Z"/>
      <path class="cls-3" d="M145.87,126.08c-.65-1.13-1.97-1.71-3.61-1.59s-3.45.92-4.94,2.21c-2.56,2.25-3.6,5.33-2.44,7.26l5.76,10.03c.37.64,1.08,1,1.99,1,.76.02,1.1.65.78,1.42s-1.21,1.4-1.98,1.42h-48.2c-4.43-.04-9.57,2.31-13.44,6.16-3.88,3.85-5.9,8.6-5.3,12.45.6,3.85,3.73,6.2,8.2,6.16h43.6c2.42.02,3.81,1.69,3.38,4.06-.6,3.55,2.34,5.19,5.56,5.07,4.07-.2,8.59-3.5,10.26-7.49.7-1.71.77-3.37.2-4.66-.91-1.9-.3-4.58,1.57-6.99l6.98-8.78c2.68-3.37,3.46-7.15,2-9.69l-10.35-18.02ZM139.11,160.92c-.45.44-1.05.71-1.55.7h-43.03c-.76-.02-1.1-.65-.78-1.42s1.21-1.4,1.98-1.42h43.03c.52-.01.89.25.96.7.07.44-.16.99-.61,1.44ZM177.04,138.27c.77-4.04,4.99-8.08,9.43-9.03,4.44-.95,7.42,1.55,6.66,5.58-.77,4.04-4.99,8.08-9.43,9.03-4.44.95-7.42-1.55-6.66-5.58ZM193.27,167.1c-1.29,3.03-4.79,5.49-7.82,5.49h-24.52c-6.77-.06-9.89-5.59-7-12.38s10.72-12.32,17.55-12.39h17.6c3.03,0,4.44,2.46,3.15,5.48s-4.79,5.48-7.82,5.48h-10.62c-.51-.01-1.1.25-1.55.7-.45.44-.68.99-.61,1.44.07.44.44.71.96.7h17.55c3.03,0,4.44,2.46,3.15,5.48ZM258.03,109.96c-.65-1.13-1.97-1.71-3.61-1.59-1.64.12-3.45.92-4.94,2.21-2.56,2.25-3.6,5.33-2.44,7.26l15.02,26.15c.37.64,1.08,1,1.99,1,.52-.01.89.25.96.7.07.44-.16.99-.61,1.44-.45.44-1.05.71-1.55.7h-48.2c-6.82.06-14.65,5.59-17.55,12.38s.23,12.32,7,12.38h43.6c2.42.02,3.81,1.69,3.38,4.06-.6,3.55,2.34,5.19,5.56,5.07,4.07-.2,8.6-3.5,10.26-7.49.7-1.71.77-3.37.2-4.66-.9-1.9-.3-4.58,1.57-6.99l6.98-8.78c2.68-3.37,3.46-7.15,2-9.69l-19.61-34.14ZM258.98,161.62h-43.02c-.52.01-.89-.25-.96-.7-.07-.44.16-.99.61-1.44.45-.44,1.05-.71,1.55-.7h43.02c.76.02,1.1.65.78,1.42s-1.21,1.4-1.98,1.42ZM325.08,180.85c-1.29,3.03-4.79,5.48-7.82,5.48h-24.27l9.29,16.19c1.13,2.04,0,5.22-2.67,7.52-1.49,1.2-3.24,1.92-4.82,2-1.58.08-2.84-.5-3.47-1.6l-19.61-34.15c-1.46-2.54-.68-6.32,2-9.69l7.11-8.95c1.81-2.34,2.37-4.94,1.46-6.76-.6-1.3-.54-2.98.17-4.72,1.66-3.99,6.19-7.3,10.25-7.49,3.2-.12,6.13,1.5,5.57,5.01-.44,2.38.94,4.07,3.37,4.12h24.62c1.45,0,2.6.58,3.19,1.61.59,1.03.57,2.42-.04,3.88s-1.79,2.85-3.26,3.88c-1.47,1.03-3.11,1.61-4.56,1.61h-31.24c-.78.02-1.65.65-1.98,1.42s.02,1.4.78,1.42h16.58c3.03,0,4.44,2.46,3.15,5.48s-4.79,5.49-7.82,5.49h-14.57c-.78,0-1.69.63-2.02,1.42-.28.67-.04,1.25.57,1.37h36.87c3.03,0,4.44,2.46,3.15,5.48ZM407.19,151.52c1.32,2.37,1.23,5.58-.25,8.91-3.19,6.85-11.15,12.23-17.97,12.15h-29.63c-3.03,0-4.44-2.46-3.15-5.49s4.79-5.48,7.82-5.48h22.86c.51.01,1.1-.25,1.55-.7.45-.44.68-.99.61-1.44-.07-.44-.44-.71-.96-.7h-37.02c-.78.02-1.65.65-1.98,1.42s.02,1.4.78,1.42h1.44c3.03,0,4.44,2.46,3.15,5.48s-4.79,5.49-7.82,5.49h-9.68c-3.05,0-5.27-1.5-5.93-4.01-.66-2.51.31-5.71,2.61-8.57l1.89-2.35c1.81-2.34,2.37-4.94,1.46-6.76-.6-1.3-.54-2.98.17-4.72,1.66-3.99,6.19-7.3,10.26-7.49,3.21-.12,6.13,1.5,5.57,5.01-.44,2.38.94,4.07,3.37,4.12h43.6c3.32,0,5.94,1.34,7.26,3.71ZM496.45,147.82h-48.21c-.76-.02-1.1-.65-.78-1.42s1.21-1.4,1.98-1.42c.91,0,1.93-.36,2.84-1l37.29-26.15c2.8-1.93,4.39-5.01,3.75-7.26-.4-1.28-1.52-2.09-3.06-2.21-1.54-.12-3.35.46-4.96,1.59l-48.68,34.15c-3.62,2.54-6.06,6.32-6.25,9.69l-.5,8.78c-.18,2.41-1.86,5.09-4.38,6.99-1.68,1.3-3.01,2.95-3.77,4.66-1.74,3.99-.03,7.3,3.87,7.49,3.12.12,7.45-1.52,9.88-5.07,1.58-2.36,4.39-4.03,6.83-4.06h43.6c6.82-.06,14.65-5.59,17.55-12.38s-.23-12.32-7-12.39ZM483.39,161.62h-43.02c-.52.01-.89-.25-.96-.7-.07-.44.16-.99.61-1.44.45-.44,1.05-.71,1.55-.7h43.02c.76.02,1.1.65.78,1.42s-1.21,1.4-1.98,1.42ZM570.02,147.81h-46.91c-5.33-.02-11.52,3.26-15.56,8.24-1,1.25-1.81,2.57-2.41,3.91-1.47,3.32-1.55,6.52-.23,8.9,1.32,2.37,3.93,3.71,7.24,3.72h46.91c5.33.02,11.52-3.26,15.56-8.24,1-1.25,1.81-2.57,2.41-3.91.66-1.5,1.05-2.99,1.14-4.4.34-4.93-2.92-8.21-8.15-8.22ZM556.96,161.61h-32.95c-.76-.02-1.1-.65-.78-1.42s1.21-1.4,1.98-1.42h32.95c.76.02,1.1.65.78,1.42s-1.21,1.4-1.98,1.42ZM639.63,109.96c-.65-1.13-1.97-1.71-3.61-1.59-1.64.12-3.45.92-4.94,2.21-2.56,2.25-3.6,5.33-2.44,7.26l15.02,26.15c.37.64,1.08,1,1.99,1,.52-.01.89.25.96.7.07.44-.16.99-.61,1.44-.45.44-1.04.71-1.55.7h-48.2c-6.82.06-14.65,5.59-17.55,12.38s.23,12.32,7,12.38h43.6c2.42.02,3.81,1.69,3.38,4.06-.6,3.55,2.34,5.19,5.56,5.07,4.07-.2,8.59-3.5,10.26-7.49.7-1.71.77-3.37.2-4.66-.9-1.9-.3-4.58,1.57-6.99l6.98-8.78c2.68-3.37,3.46-7.15,2-9.69l-19.61-34.14ZM640.57,161.62h-43.02c-.52.01-.89-.25-.96-.7-.07-.44.16-.99.61-1.44.45-.44,1.05-.71,1.55-.7h43.02c.76.02,1.1.65.78,1.42s-1.21,1.4-1.98,1.42ZM696.27,167.1c-1.29,3.03-4.79,5.49-7.82,5.49h-24.52c-6.77-.06-9.9-5.59-7-12.38,2.89-6.8,10.72-12.32,17.55-12.39h17.6c3.03,0,4.44,2.46,3.15,5.48s-4.79,5.48-7.82,5.48h-10.62c-.51-.01-1.1.25-1.55.7-.45.44-.68.99-.61,1.44.07.44.44.71.96.7h17.55c3.03,0,4.44,2.46,3.15,5.48ZM680.04,138.27c.77-4.04,4.99-8.08,9.43-9.03s7.42,1.55,6.66,5.58c-.77,4.04-4.99,8.08-9.43,9.03-4.44.95-7.42-1.55-6.66-5.58ZM734.89,163.89c.55,1.15.4,2.68-.4,4.22-1.57,2.86-4.93,4.99-7.79,4.95h-10.87c-2.46.04-5.29,1.74-6.87,4.12-2.44,3.51-6.74,5.13-9.84,5.01-3.9-.19-5.61-3.5-3.87-7.49.77-1.74,2.14-3.42,3.85-4.72,2.46-1.82,4.11-4.42,4.29-6.76l.51-8.95c.19-3.37,2.63-7.15,6.25-9.69l48.69-34.15c1.56-1.09,3.32-1.67,4.83-1.6,1.51.08,2.65.8,3.12,2,.71,2.3-.87,5.48-3.73,7.52l-42.07,29.5c-3.4,2.38-5.64,5.97-5.68,9.09-.04,3.12,2.14,5.15,5.51,5.15h10.78c1.55,0,2.75.65,3.3,1.8ZM805.39,176.3l-48.69,34.15c-1.56,1.09-3.31,1.67-4.83,1.6-1.51-.08-2.65-.8-3.12-2-.71-2.3.87-5.48,3.73-7.52l37.22-26.11c.94-.63,1.98-.99,2.91-1,.78-.04,1.65-.68,1.96-1.45.31-.77-.05-1.38-.82-1.38h-48.2c-6.84,0-10.02-5.54-7.11-12.38s10.82-12.38,17.66-12.38h9.12c1.99-.03,3.38,1.01,3.65,2.72.27,1.71-.63,3.82-2.35,5.53-1.72,1.71-4,2.75-5.97,2.72h-1.93c-.78.02-1.65.65-1.98,1.42s.02,1.4.78,1.42h43.03c.78-.02,1.65-.65,1.98-1.42s-.02-1.4-.78-1.42h-8.37c-1.99.03-3.38-1.01-3.65-2.72-.27-1.71.63-3.82,2.35-5.53,1.72-1.71,4-2.75,5.97-2.72h1.75c2.47-.04,5.29-1.74,6.88-4.12,2.44-3.51,6.74-5.13,9.84-5.01,3.9.2,5.61,3.5,3.88,7.49-.77,1.74-2.14,3.42-3.85,4.72-2.46,1.82-4.11,4.42-4.29,6.76l-.51,8.95c-.19,3.37-2.63,7.15-6.25,9.69Z"/>
    </g>
    <g id="_41" data-name="41">
      <path d="M52.71,230.28c-1.56-11.96,11.91-25.22,37.22-38.78C28.23,219.23-5.67,245.98.78,266.72c14.81,47.64,236.83,45.54,495.91-4.69,92.17-17.87,176.59-39.42,246.47-61.92-70.71,20.37-162.38,39.03-263.28,52.21-230.39,30.1-421.64,20.23-427.17-22.04Z"/>
      <path d="M938.97,84.83c-14.81-47.64-236.84-45.56-495.91,4.69-80.32,15.58-108.04,21.55-171.34,38.21-1.08.28-.71,1.9.39,1.68,66.94-13.73,99.46-18.64,187.77-30.18,230.39-30.1,421.64-20.23,427.17,22.04,1.56,11.96-40.58,40.14-65.9,53.7,61.7-27.74,124.27-69.4,117.82-90.14Z"/>
    </g>
    <g id="_37" data-name="37">
      <path class="cls-2" d="M134.4,261.28l-25.23-3.18c-.93-.12-1.53-.63-1.6-1.36l-1.78-19.86c-.17-1.85-3.4-1.85-5.47,0l-22.26,19.86c-.82.73-1.95,1.24-3,1.36l-28.52,3.18c-2.66.3-4.95,2.8-3.88,4.24l11.48,15.46c.42.57.33,1.4-.26,2.2l-15.85,21.83c-1.48,2.03.34,3.58,3.07,2.62l29.36-10.3c1.09-.38,2.15-.38,2.84,0l18.72,10.3c1.74.96,5.16-.59,5.78-2.62l6.67-21.83c.25-.81,1-1.63,2.01-2.2l27.42-15.46c2.55-1.44,2.85-3.95.5-4.24Z"/>
      <path class="cls-2" d="M166.65,287.26l-14.33-1.81c-.53-.07-.87-.36-.91-.77l-1.01-11.27c-.09-1.05-1.93-1.05-3.11,0l-12.64,11.27c-.47.42-1.1.71-1.7.77l-16.19,1.81c-1.51.17-2.81,1.59-2.2,2.41l6.51,8.77c.24.32.19.79-.15,1.25l-9,12.39c-.84,1.15.19,2.03,1.75,1.49l16.66-5.85c.62-.22,1.22-.22,1.61,0l10.63,5.85c.99.54,2.93-.34,3.28-1.49l3.78-12.39c.14-.46.57-.93,1.14-1.25l15.57-8.77c1.45-.82,1.62-2.24.28-2.41Z"/>
    </g>
    <path d="M594.04,89.11c-2.37,0-4.56-1.15-5.85-3.08-1.31-1.95-1.53-4.46-.6-6.71l11.42-27.34h-26.29c-2.41-.02-4.58-1.18-5.86-3.11-1.29-1.96-1.5-4.47-.56-6.72,1.24-2.98,4.2-4.99,7.37-5.01h28.7c1.12,0,3.44-1.44,4.18-3.22l12.07-28.91c1.27-3,4.25-5,7.42-5,2.37,0,4.56,1.15,5.85,3.07,1.31,1.95,1.54,4.45.61,6.71l-11.42,27.35h26.29c2.41.02,4.58,1.18,5.86,3.11,1.29,1.96,1.51,4.47.57,6.72-1.25,2.99-4.21,5-7.38,5.02h-28.7c-1.12,0-3.44,1.44-4.18,3.22l-12.07,28.91c-1.28,3.01-4.26,5-7.42,5Z"/>
    <path id="_36" data-name="36" class="cls-3" d="M647.36,43.38h0s-28.67,0-28.67,0h0c-3.86,0-5.68-3.16-4.05-7.06h0l12.07-28.91h0c.27-.64-.04-1.17-.68-1.17s-1.38.52-1.66,1.17h0l-12.07,28.91h0c-1.63,3.9-6.08,7.06-9.94,7.06h0s-28.67,0-28.67,0h0c-.64,0-1.38.53-1.65,1.18s.03,1.18.66,1.18h0s28.67,0,28.67,0h0c3.86,0,5.68,3.16,4.05,7.06h0l-12.07,28.91h0c-.27.64.04,1.17.68,1.17s1.38-.52,1.66-1.17h0l12.07-28.91h0c1.63-3.9,6.08-7.06,9.94-7.06h0s28.67,0,28.67,0h0c.64,0,1.38-.53,1.65-1.18s-.03-1.18-.66-1.18Z"/>
    <path d="M664.6,135.45c-2.46,0-4.72-1.19-6.05-3.17-1.35-2.02-1.58-4.62-.62-6.97l15.8-37.83c.09-.22.16-.41.2-.58h-37.21c-2.5-.02-4.74-1.22-6.06-3.21-1.34-2.02-1.55-4.63-.58-6.98,1.32-3.15,4.56-5.36,7.88-5.39h37.52c2.26,0,5.99-2.41,7.24-5.39l15.78-37.79c1.35-3.17,4.6-5.36,7.93-5.36,2.46,0,4.72,1.19,6.05,3.17,1.35,2.02,1.58,4.62.61,6.97l-15.79,37.82c-.09.22-.16.41-.2.58h37.21c2.5.02,4.74,1.22,6.06,3.21,1.34,2.02,1.55,4.63.57,6.98-1.32,3.15-4.55,5.36-7.88,5.38h-37.52c-2.26,0-5.99,2.41-7.24,5.39l-15.78,37.79c-1.35,3.17-4.6,5.36-7.93,5.36Z"/>
    <path id="_36-2" data-name="36" class="cls-3" d="M734.31,77.58h0s-37.47,0-37.47,0h0c-5.05,0-7.42-4.13-5.29-9.22h0l15.78-37.79h0c.35-.84-.05-1.52-.89-1.52s-1.81.68-2.17,1.52h0l-15.78,37.79h0c-2.13,5.09-7.95,9.22-13,9.22h0s-37.47,0-37.47,0h0c-.84,0-1.8.69-2.15,1.54s.03,1.54.87,1.54h0s37.47,0,37.47,0h0c5.05,0,7.42,4.13,5.29,9.23h0l-15.78,37.79h0c-.35.84.05,1.52.89,1.52s1.81-.68,2.17-1.52h0l15.78-37.79h0c2.13-5.09,7.95-9.22,13-9.22h0s37.47,0,37.47,0h0c.84,0,1.8-.69,2.15-1.54s-.03-1.54-.87-1.54Z"/>
    <path d="M758.09,85.45c-2.3,0-4.43-1.12-5.69-3-1.27-1.9-1.5-4.33-.61-6.5l7.83-18.76h-17.77c-2.34-.02-4.46-1.15-5.7-3.04-1.26-1.9-1.47-4.34-.57-6.51,1.18-2.82,3.98-4.72,6.98-4.74h21.86c.43-.06,1.51-.83,1.81-1.53l9.19-22c1.21-2.84,4.03-4.72,7.02-4.72,2.31,0,4.43,1.12,5.69,3.01,1.27,1.9,1.49,4.33.6,6.51l-7.83,18.75h17.77c2.35.02,4.46,1.16,5.71,3.04,1.26,1.91,1.47,4.34.55,6.52-1.17,2.8-3.97,4.71-6.97,4.73h-21.86c-.43.06-1.51.83-1.81,1.53l-9.19,22.01c-1.21,2.84-4.02,4.72-7.02,4.72Z"/>
    <path id="_36-3" data-name="36" class="cls-3" d="M798.67,49.15h0s-21.82,0-21.82,0h0c-2.94,0-4.32-2.4-3.08-5.37h0l9.19-22h0c.2-.49-.03-.89-.52-.89s-1.05.4-1.26.89h0l-9.19,22h0c-1.24,2.97-4.63,5.37-7.57,5.37h0s-21.82,0-21.82,0h0c-.49,0-1.05.4-1.25.9s.02.89.5.9h0s21.82,0,21.82,0h0c2.94,0,4.32,2.4,3.08,5.37h0l-9.19,22h0c-.2.49.03.89.52.89s1.05-.4,1.26-.89h0l9.19-22h0c1.24-2.97,4.63-5.37,7.57-5.37h0s21.82,0,21.82,0h0c.49,0,1.05-.4,1.25-.9s-.02-.89-.5-.9Z"/>
  </g>
  <g>
    <g>
      <path d="M845.41,167.58c-.23-.37-.48-.72-.75-1.05-.07-.12-.12-.25-.2-.38-.23-.37-.48-.72-.75-1.06-.07-.12-.12-.25-.2-.37-.23-.37-.48-.72-.75-1.06-.07-.12-.12-.25-.2-.37-.23-.37-.48-.72-.75-1.06-.07-.12-.12-.25-.2-.37-.23-.37-.48-.72-.75-1.06-.07-.12-.12-.25-.2-.37-.23-.37-.48-.72-.75-1.06-.07-.12-.12-.25-.2-.37-.23-.37-.48-.72-.75-1.06-.07-.12-.12-.25-.2-.37-.23-.37-.48-.72-.75-1.06-.07-.12-.12-.25-.2-.37-.23-.37-.48-.72-.75-1.06-.07-.12-.12-.25-.2-.37-.23-.37-.48-.72-.75-1.06-.07-.12-.12-.25-.2-.37-.23-.37-.48-.72-.75-1.06-.07-.12-.12-.25-.2-.37-.23-.37-.48-.72-.75-1.06-.07-.12-.12-.25-.2-.37-.23-.37-.48-.72-.75-1.06-.07-.12-.12-.25-.2-.37-.23-.37-.48-.72-.75-1.06-.07-.12-.12-.25-.2-.37-.23-.37-.48-.72-.75-1.06-.07-.12-.12-.25-.2-.37-.23-.37-.48-.72-.75-1.06-.07-.12-.12-.25-.2-.37-.23-.37-.48-.72-.75-1.06-.07-.12-.12-.25-.2-.37-.23-.37-.48-.72-.75-1.06-.07-.12-.12-.25-.2-.37-.23-.37-.48-.72-.75-1.06-.07-.12-.12-.25-.2-.37-.23-.37-.48-.72-.75-1.06-.07-.12-.12-.25-.2-.37-.23-.37-.48-.72-.75-1.06-.07-.12-.12-.25-.2-.37-1.81-2.91-4.98-4.69-8.76-4.88-.19,0-.37-.01-.57-.01-5.57,0-11.24,2.98-14.44,7.6l-.07.1c-.57.86-1.61,1.4-1.98,1.44h-1.73c-1.64,0-3.33.37-4.96,1.04.1-1.29-.03-2.58-.41-3.81l-.07-.22-.09-.22c-.35-.88-.83-1.68-1.42-2.39-.28-.51-.59-.99-.95-1.43-.28-.51-.59-.99-.95-1.43-.28-.51-.59-.99-.95-1.43-.28-.51-.59-.99-.95-1.43-.28-.51-.59-.99-.95-1.43-.28-.51-.59-.99-.95-1.43-.28-.51-.59-.99-.95-1.43-.28-.51-.59-.99-.95-1.43-.28-.51-.59-.99-.95-1.43-.28-.51-.59-.99-.95-1.43-.28-.51-.59-.99-.95-1.43-.28-.51-.59-.99-.95-1.43-.28-.51-.59-.99-.95-1.43-.28-.51-.59-.99-.95-1.43-.28-.51-.59-.99-.95-1.43-.28-.51-.59-.99-.95-1.43-.28-.51-.59-.99-.95-1.43-.28-.51-.59-.99-.95-1.43-.28-.51-.59-.99-.95-1.43-.28-.51-.59-.99-.95-1.43-1.53-2.82-4.47-4.65-7.93-4.82-.19,0-.38-.01-.57-.01-2.68,0-5.53.96-8.01,2.69l-47.48,33.3c-.1-.14-.2-.29-.31-.43-.28-.5-.59-.98-.95-1.43-.28-.5-.59-.98-.95-1.43-.28-.5-.59-.98-.95-1.43-.28-.5-.59-.98-.95-1.43-.28-.5-.59-.98-.95-1.43-.28-.5-.59-.98-.95-1.43-.28-.5-.59-.98-.95-1.43-.3-.54-.63-1.06-1.03-1.54-2.04-2.46-5.09-3.82-8.6-3.82-1,0-2.04.11-3.08.34-6.81,1.46-12.85,7.38-14.07,13.78-.31,1.62-.3,3.2.01,4.68-1.98.05-3.99.41-5.96,1.02l-3.37-5.87c-.23-.4-.5-.78-.78-1.13l-.17-.3c-.23-.4-.5-.78-.78-1.13l-.17-.3c-.23-.4-.5-.78-.78-1.13l-.17-.3c-.23-.4-.5-.78-.78-1.13l-.17-.3c-.23-.4-.5-.78-.78-1.13l-.17-.3c-.23-.4-.5-.78-.78-1.13l-.17-.3c-.23-.4-.5-.78-.78-1.13l-.17-.3c-.23-.4-.5-.78-.78-1.13l-.17-.3c-.23-.4-.5-.78-.78-1.13l-.17-.3c-.23-.4-.5-.78-.78-1.13l-.17-.3c-.23-.4-.5-.78-.78-1.13l-.17-.3c-.23-.4-.5-.78-.78-1.13l-.17-.3c-.23-.4-.5-.78-.78-1.13l-.17-.3c-.23-.4-.5-.78-.78-1.13l-.17-.3c-.23-.4-.5-.78-.78-1.13l-.17-.3c-.23-.4-.5-.78-.78-1.13l-.17-.3c-.23-.4-.5-.78-.78-1.13l-.17-.3c-.23-.4-.5-.78-.78-1.13l-.17-.3c-.23-.4-.5-.78-.78-1.13l-.17-.3c-.23-.4-.5-.78-.78-1.13l-.17-.3c-.23-.4-.5-.78-.78-1.13l-.17-.3c-1.66-2.89-4.8-4.62-8.4-4.62-.28,0-.56,0-.85.03-2.94.21-5.93,1.5-8.47,3.68-4.82,4.23-6.31,10.3-3.66,14.8l12.03,20.95h-39.31c-5.02.05-10.23,2.09-14.56,5.4-.28-.38-.58-.74-.91-1.09-2.59-2.78-6.39-4.32-10.69-4.32h-46.96c-1.19,0-2.41.12-3.63.35.06-1.1-.04-2.2-.34-3.25l-.04-.14c-.35-1.11-.91-2.1-1.61-2.97-.27-.51-.59-.99-.95-1.43-.27-.51-.59-.99-.95-1.43-.27-.51-.59-.99-.95-1.43-.27-.51-.59-.99-.95-1.43-.27-.51-.59-.99-.95-1.43-.27-.51-.59-.99-.95-1.43-.27-.51-.59-.98-.95-1.43-.27-.51-.59-.99-.95-1.43-.27-.51-.59-.99-.95-1.43-.27-.51-.59-.99-.95-1.43-.27-.51-.59-.99-.95-1.43-.27-.51-.59-.99-.95-1.43-.27-.51-.59-.99-.95-1.43-.27-.51-.59-.99-.95-1.43-.27-.51-.59-.99-.95-1.43-.27-.51-.59-.99-.95-1.43-.27-.51-.59-.99-.95-1.43-.27-.51-.59-.99-.95-1.43-.27-.51-.59-.99-.95-1.43-.27-.51-.59-.99-.95-1.43-1.47-2.78-4.27-4.6-7.67-4.86-.28-.02-.57-.03-.86-.03-2.69,0-5.53.96-8.01,2.69l-48.68,34.15c-5.13,3.6-8.5,9.07-8.8,14.27l-.49,8.69c-.03.26-.35,1.02-1.16,1.86-.27-.45-.56-.89-.87-1.3-.29-.5-.61-.98-.95-1.43-.29-.5-.61-.98-.95-1.43-.29-.5-.61-.98-.95-1.43-.29-.5-.61-.98-.95-1.43-.29-.5-.61-.98-.95-1.43-.29-.5-.61-.98-.95-1.43-.29-.5-.61-.98-.95-1.43-.29-.5-.61-.98-.95-1.43-.29-.5-.61-.98-.95-1.43-.29-.5-.61-.98-.95-1.43-2.43-4.21-6.93-6.62-12.4-6.62h-39.59c-.19-.3-.41-.59-.63-.87-.27-.5-.59-.98-.95-1.43-.27-.5-.59-.98-.95-1.43-.31-.57-.66-1.11-1.09-1.61-2.06-2.41-5.34-3.79-9-3.79-.19,0-.37,0-.62.01-6.24.3-12.58,4.75-15.3,10.7-1.57-1.02-3.47-1.58-5.52-1.58h-20.61c-.19-.3-.41-.59-.63-.87-.27-.5-.59-.98-.95-1.43-.27-.5-.59-.98-.95-1.43-.31-.57-.66-1.11-1.09-1.61-2.06-2.41-5.34-3.79-8.99-3.79-.19,0-.37,0-.62.01-3.36.16-6.74,1.54-9.58,3.7-.13-.19-.25-.38-.39-.55l-.17-.3c-.23-.4-.5-.77-.78-1.13l-.17-.3c-.23-.4-.5-.77-.78-1.13l-.17-.3c-.23-.4-.5-.77-.78-1.13l-.17-.3c-.23-.4-.5-.77-.78-1.13l-.17-.3c-.23-.4-.5-.77-.78-1.13l-.17-.3c-.23-.4-.5-.77-.78-1.13l-.17-.3c-.23-.4-.5-.77-.78-1.13l-.17-.3c-.23-.4-.5-.77-.78-1.13l-.17-.3c-.23-.4-.5-.77-.78-1.13l-.17-.3c-.23-.4-.5-.77-.78-1.13l-.17-.3c-.23-.4-.5-.77-.78-1.13l-.17-.3c-.23-.4-.5-.77-.78-1.13l-.17-.3c-.23-.4-.5-.77-.78-1.13l-.17-.3c-.23-.4-.5-.77-.78-1.13l-.17-.3c-.23-.4-.5-.77-.78-1.13l-.17-.3c-.23-.4-.5-.77-.78-1.13l-.17-.3c-.23-.4-.5-.77-.78-1.13l-.17-.3c-.23-.4-.5-.77-.78-1.13l-.17-.3c-.23-.4-.5-.77-.78-1.13l-.17-.3c-.23-.4-.5-.77-.78-1.13l-.17-.3c-1.66-2.89-4.8-4.62-8.4-4.62-.28,0-.56,0-.84.03-2.94.21-5.93,1.5-8.47,3.68-4.82,4.23-6.31,10.3-3.66,14.8l12.03,20.95h-39.31c-2.28.02-4.6.46-6.86,1.24-.1-.13-.19-.27-.29-.39-.28-.5-.59-.98-.95-1.43-.28-.5-.59-.98-.95-1.43-.28-.5-.59-.98-.95-1.43-.28-.5-.59-.98-.95-1.43-.28-.5-.59-.98-.95-1.43-.28-.5-.59-.98-.95-1.43-.28-.5-.59-.98-.95-1.43-.28-.5-.59-.98-.95-1.43-.28-.5-.59-.98-.95-1.43-.28-.5-.59-.98-.95-1.43-.3-.54-.63-1.05-1.03-1.53-2.04-2.46-5.09-3.82-8.6-3.82-1,0-2.04.11-3.08.34-6.8,1.46-12.85,7.38-14.06,13.78-.31,1.62-.3,3.2.01,4.68-2.25.05-4.52.5-6.74,1.28h0c-.23-.41-.5-.79-.78-1.14l-.17-.3c-.23-.4-.5-.77-.78-1.13l-.17-.3c-.23-.4-.5-.78-.78-1.13l-.17-.3c-.23-.4-.5-.77-.78-1.13l-.17-.3c-.23-.4-.5-.77-.78-1.13l-.17-.3c-.23-.4-.5-.77-.78-1.13l-.17-.3c-.23-.4-.5-.77-.78-1.13l-.17-.3c-.23-.4-.5-.77-.78-1.13l-.17-.3c-.23-.4-.5-.77-.78-1.13l-.17-.3c-.23-.4-.5-.78-.78-1.13l-.17-.3c-.23-.4-.5-.77-.78-1.13l-.17-.3c-.23-.4-.5-.77-.78-1.13l-.17-.3c-.23-.4-.5-.77-.78-1.13l-.17-.3c-.23-.4-.5-.78-.78-1.13l-.17-.3c-1.66-2.89-4.8-4.62-8.4-4.62-.28,0-.56,0-.85.03-2.94.21-5.93,1.5-8.47,3.68-4.81,4.23-6.31,10.3-3.66,14.79l2.78,4.84h-39.36c-6.01,0-12.57,2.95-17.56,7.9-5.29,5.25-7.9,11.84-7,17.63.35,2.26,1.23,4.26,2.5,5.93.28.5.61.97.95,1.43.28.5.61.97.95,1.43.28.5.61.97.95,1.43.28.5.61.97.95,1.43.28.5.61.97.95,1.43.28.5.61.97.95,1.43.28.5.61.97.95,1.43.28.5.61.97.95,1.43.28.5.61.97.95,1.43.28.5.61.97.95,1.43.28.5.61.97.95,1.43.28.5.61.97.95,1.43.28.5.61.97.95,1.43.28.5.61.97.95,1.43.28.5.61.97.95,1.43.28.5.61.97.95,1.43.28.5.61.97.95,1.43.28.5.61.97.95,1.43.28.5.61.97.95,1.43.28.5.61.97.95,1.43,2.35,4.16,6.92,6.74,12.46,6.74h39.7c.19.3.41.6.64.88.28.5.59.98.95,1.43.28.5.59.98.95,1.43.3.55.64,1.08,1.05,1.57,2.06,2.43,5.35,3.83,9.02,3.83.19,0,.37,0,.62-.01,6.42-.31,12.94-5.01,15.52-11.22.16-.39.3-.78.42-1.17,2.47,2.07,5.77,3.23,9.48,3.27h24.52c3.18,0,6.4-1.29,8.99-3.42,2.49,2.17,5.85,3.39,9.66,3.42h39.59c.19.3.4.6.64.88.28.5.59.98.95,1.43.28.5.59.98.95,1.43.3.55.64,1.08,1.05,1.57,2.06,2.44,5.35,3.83,9.02,3.83.19,0,.37,0,.62-.01,3.36-.16,6.74-1.54,9.58-3.7.13.19.25.38.39.55l.17.3c.23.4.5.77.78,1.13l.17.3c.23.4.5.77.78,1.13l.17.3c.23.4.5.77.78,1.13l.17.3c.23.4.5.78.78,1.13l.17.3c.23.4.5.77.78,1.13l.17.3c.23.4.5.77.78,1.13l.17.3c.23.4.5.77.78,1.13l.17.3c.23.4.5.77.78,1.13l.17.3c.23.4.5.77.78,1.13l.17.3c.23.4.5.77.78,1.13l.17.3c.23.4.5.78.78,1.13l.17.3c.23.4.5.77.78,1.13l.17.3c.23.4.5.77.78,1.13l.17.3c.23.4.5.78.78,1.13l.17.3c.23.4.5.77.78,1.13l.17.3c.23.4.5.77.78,1.13l.17.3c.23.4.5.77.78,1.13l.17.3c.23.4.5.77.78,1.13l.17.3c.23.4.5.77.78,1.13l.17.3c.23.4.5.77.78,1.13l.17.3c1.66,2.89,4.8,4.62,8.4,4.62.18,0,.37,0,.56-.01,2.85-.14,5.8-1.31,8.29-3.31l.16-.13c4.9-4.22,6.55-10.38,3.96-15.06l-4.13-7.2h13.91c5.48,0,11.09-3.84,13.34-9.13.82-1.93,1.11-3.9.88-5.74,1.62.73,3.47,1.12,5.45,1.12h9.68c2.32,0,4.66-.69,6.76-1.88,1.64,1.22,3.7,1.88,5.96,1.88h29.79c6.64,0,13.75-3.58,18.72-8.96.06.11.11.24.18.35.23.37.48.72.75,1.05.07.12.12.25.2.37.23.37.48.72.75,1.05.07.12.12.25.2.37.23.37.48.72.75,1.05.07.12.12.25.2.37.23.37.48.72.75,1.05.07.12.12.25.2.37.23.37.48.72.75,1.05.07.12.12.25.2.37.23.37.48.72.75,1.05.07.12.12.25.2.37.23.37.48.72.75,1.05.07.12.12.25.2.37.23.37.48.72.75,1.05.07.12.12.25.2.37.23.37.48.72.75,1.06.07.12.12.25.2.37,1.81,2.92,4.98,4.69,8.76,4.88.18,0,.37.01.56.01,5.62,0,11.31-3.02,14.54-7.75.56-.83,1.56-1.36,1.84-1.39h43.65c5.04-.05,10.26-2.1,14.59-5.43,2.54,3.45,6.67,5.41,11.6,5.42h46.96c5.01,0,10.43-2.05,15.01-5.5,2.51,3.46,6.68,5.46,11.57,5.51h39.59c.19.3.41.6.64.88.28.5.59.98.95,1.43.28.5.59.98.95,1.43.3.55.64,1.08,1.05,1.57,2.06,2.43,5.35,3.83,9.02,3.83.19,0,.37,0,.62-.01,6.42-.31,12.94-5.01,15.52-11.22.16-.39.3-.77.42-1.16,2.47,2.07,5.76,3.22,9.47,3.26,0,0,17.67,0,23.09,0,.01.01.02.03.03.04.07.13.13.26.21.38.23.37.48.72.75,1.05.07.13.13.26.21.38.23.37.48.72.75,1.05.07.13.13.26.21.38.23.37.48.72.75,1.05.07.13.13.26.21.38,1.81,2.92,4.98,4.69,8.76,4.88.19,0,.38.01.57.01,5.57,0,11.24-2.98,14.44-7.6l.07-.1c.57-.86,1.6-1.4,1.97-1.44h6.66c.02.94.16,1.87.44,2.77l.07.22.08.21c.35.88.83,1.68,1.42,2.39.28.51.59.99.95,1.43.28.51.59.99.95,1.43.28.51.59.99.95,1.43.28.51.59.99.95,1.43.28.51.59.99.95,1.43.28.51.59.99.95,1.43.28.51.59.99.95,1.43.28.51.59.99.95,1.43.28.51.59.99.95,1.43.28.51.59.99.95,1.43.28.51.59.99.95,1.43.28.51.59.99.95,1.43.28.51.59.99.95,1.43.28.51.59.99.95,1.43.28.51.59.99.95,1.43.28.51.59.99.95,1.43.28.51.59.99.95,1.43.28.51.59.99.95,1.43.28.51.59.99.95,1.43.28.51.59.99.95,1.43,1.53,2.82,4.47,4.65,7.93,4.82.19,0,.38.01.57.01,2.68,0,5.53-.96,8.01-2.69l48.68-34.15c5.13-3.6,8.5-9.07,8.8-14.27l.5-8.83c.05-.32.57-1.42,1.95-2.44,2.5-1.91,4.52-4.41,5.71-7.1,1.69-3.88,1.55-7.89-.38-11ZM783.58,155.62h-.46l.47-.33c0,.11-.02.22-.01.33Z"/>
      <path class="cls-3" d="M145.87,126.08c-.65-1.13-1.97-1.71-3.61-1.59s-3.45.92-4.94,2.21c-2.56,2.25-3.6,5.33-2.44,7.26l5.76,10.03c.37.64,1.08,1,1.99,1,.76.02,1.1.65.78,1.42s-1.21,1.4-1.98,1.42h-48.2c-4.43-.04-9.57,2.31-13.44,6.16-3.88,3.85-5.9,8.6-5.3,12.45.6,3.85,3.73,6.2,8.2,6.16h43.6c2.42.02,3.81,1.69,3.38,4.06-.6,3.55,2.34,5.19,5.56,5.07,4.07-.2,8.59-3.5,10.26-7.49.7-1.71.77-3.37.2-4.66-.91-1.9-.3-4.58,1.57-6.99l6.98-8.78c2.68-3.37,3.46-7.15,2-9.69l-10.35-18.02ZM139.11,160.92c-.45.44-1.05.71-1.55.7h-43.03c-.76-.02-1.1-.65-.78-1.42s1.21-1.4,1.98-1.42h43.03c.52-.01.89.25.96.7.07.44-.16.99-.61,1.44ZM177.04,138.27c.77-4.04,4.99-8.08,9.43-9.03,4.44-.95,7.42,1.55,6.66,5.58-.77,4.04-4.99,8.08-9.43,9.03-4.44.95-7.42-1.55-6.66-5.58ZM193.27,167.1c-1.29,3.03-4.79,5.49-7.82,5.49h-24.52c-6.77-.06-9.89-5.59-7-12.38s10.72-12.32,17.55-12.39h17.6c3.03,0,4.44,2.46,3.15,5.48s-4.79,5.48-7.82,5.48h-10.62c-.51-.01-1.1.25-1.55.7-.45.44-.68.99-.61,1.44.07.44.44.71.96.7h17.55c3.03,0,4.44,2.46,3.15,5.48ZM258.03,109.96c-.65-1.13-1.97-1.71-3.61-1.59-1.64.12-3.45.92-4.94,2.21-2.56,2.25-3.6,5.33-2.44,7.26l15.02,26.15c.37.64,1.08,1,1.99,1,.52-.01.89.25.96.7.07.44-.16.99-.61,1.44-.45.44-1.05.71-1.55.7h-48.2c-6.82.06-14.65,5.59-17.55,12.38s.23,12.32,7,12.38h43.6c2.42.02,3.81,1.69,3.38,4.06-.6,3.55,2.34,5.19,5.56,5.07,4.07-.2,8.6-3.5,10.26-7.49.7-1.71.77-3.37.2-4.66-.9-1.9-.3-4.58,1.57-6.99l6.98-8.78c2.68-3.37,3.46-7.15,2-9.69l-19.61-34.14ZM258.98,161.62h-43.02c-.52.01-.89-.25-.96-.7-.07-.44.16-.99.61-1.44.45-.44,1.05-.71,1.55-.7h43.02c.76.02,1.1.65.78,1.42s-1.21,1.4-1.98,1.42ZM325.08,180.85c-1.29,3.03-4.79,5.48-7.82,5.48h-24.27l9.29,16.19c1.13,2.04,0,5.22-2.67,7.52-1.49,1.2-3.24,1.92-4.82,2-1.58.08-2.84-.5-3.47-1.6l-19.61-34.15c-1.46-2.54-.68-6.32,2-9.69l7.11-8.95c1.81-2.34,2.37-4.94,1.46-6.76-.6-1.3-.54-2.98.17-4.72,1.66-3.99,6.19-7.3,10.25-7.49,3.2-.12,6.13,1.5,5.57,5.01-.44,2.38.94,4.07,3.37,4.12h24.62c1.45,0,2.6.58,3.19,1.61.59,1.03.57,2.42-.04,3.88s-1.79,2.85-3.26,3.88c-1.47,1.03-3.11,1.61-4.56,1.61h-31.24c-.78.02-1.65.65-1.98,1.42s.02,1.4.78,1.42h16.58c3.03,0,4.44,2.46,3.15,5.48s-4.79,5.49-7.82,5.49h-14.57c-.78,0-1.69.63-2.02,1.42-.28.67-.04,1.25.57,1.37h36.87c3.03,0,4.44,2.46,3.15,5.48ZM407.19,151.52c1.32,2.37,1.23,5.58-.25,8.91-3.19,6.85-11.15,12.23-17.97,12.15h-29.63c-3.03,0-4.44-2.46-3.15-5.49s4.79-5.48,7.82-5.48h22.86c.51.01,1.1-.25,1.55-.7.45-.44.68-.99.61-1.44-.07-.44-.44-.71-.96-.7h-37.02c-.78.02-1.65.65-1.98,1.42s.02,1.4.78,1.42h1.44c3.03,0,4.44,2.46,3.15,5.48s-4.79,5.49-7.82,5.49h-9.68c-3.05,0-5.27-1.5-5.93-4.01-.66-2.51.31-5.71,2.61-8.57l1.89-2.35c1.81-2.34,2.37-4.94,1.46-6.76-.6-1.3-.54-2.98.17-4.72,1.66-3.99,6.19-7.3,10.26-7.49,3.21-.12,6.13,1.5,5.57,5.01-.44,2.38.94,4.07,3.37,4.12h43.6c3.32,0,5.94,1.34,7.26,3.71ZM496.45,147.82h-48.21c-.76-.02-1.1-.65-.78-1.42s1.21-1.4,1.98-1.42c.91,0,1.93-.36,2.84-1l37.29-26.15c2.8-1.93,4.39-5.01,3.75-7.26-.4-1.28-1.52-2.09-3.06-2.21-1.54-.12-3.35.46-4.96,1.59l-48.68,34.15c-3.62,2.54-6.06,6.32-6.25,9.69l-.5,8.78c-.18,2.41-1.86,5.09-4.38,6.99-1.68,1.3-3.01,2.95-3.77,4.66-1.74,3.99-.03,7.3,3.87,7.49,3.12.12,7.45-1.52,9.88-5.07,1.58-2.36,4.39-4.03,6.83-4.06h43.6c6.82-.06,14.65-5.59,17.55-12.38s-.23-12.32-7-12.39ZM483.39,161.62h-43.02c-.52.01-.89-.25-.96-.7-.07-.44.16-.99.61-1.44.45-.44,1.05-.71,1.55-.7h43.02c.76.02,1.1.65.78,1.42s-1.21,1.4-1.98,1.42ZM570.02,147.81h-46.91c-5.33-.02-11.52,3.26-15.56,8.24-1,1.25-1.81,2.57-2.41,3.91-1.47,3.32-1.55,6.52-.23,8.9,1.32,2.37,3.93,3.71,7.24,3.72h46.91c5.33.02,11.52-3.26,15.56-8.24,1-1.25,1.81-2.57,2.41-3.91.66-1.5,1.05-2.99,1.14-4.4.34-4.93-2.92-8.21-8.15-8.22ZM556.96,161.61h-32.95c-.76-.02-1.1-.65-.78-1.42s1.21-1.4,1.98-1.42h32.95c.76.02,1.1.65.78,1.42s-1.21,1.4-1.98,1.42ZM639.63,109.96c-.65-1.13-1.97-1.71-3.61-1.59-1.64.12-3.45.92-4.94,2.21-2.56,2.25-3.6,5.33-2.44,7.26l15.02,26.15c.37.64,1.08,1,1.99,1,.52-.01.89.25.96.7.07.44-.16.99-.61,1.44-.45.44-1.04.71-1.55.7h-48.2c-6.82.06-14.65,5.59-17.55,12.38s.23,12.32,7,12.38h43.6c2.42.02,3.81,1.69,3.38,4.06-.6,3.55,2.34,5.19,5.56,5.07,4.07-.2,8.59-3.5,10.26-7.49.7-1.71.77-3.37.2-4.66-.9-1.9-.3-4.58,1.57-6.99l6.98-8.78c2.68-3.37,3.46-7.15,2-9.69l-19.61-34.14ZM640.57,161.62h-43.02c-.52.01-.89-.25-.96-.7-.07-.44.16-.99.61-1.44.45-.44,1.05-.71,1.55-.7h43.02c.76.02,1.1.65.78,1.42s-1.21,1.4-1.98,1.42ZM696.27,167.1c-1.29,3.03-4.79,5.49-7.82,5.49h-24.52c-6.77-.06-9.9-5.59-7-12.38,2.89-6.8,10.72-12.32,17.55-12.39h17.6c3.03,0,4.44,2.46,3.15,5.48s-4.79,5.48-7.82,5.48h-10.62c-.51-.01-1.1.25-1.55.7-.45.44-.68.99-.61,1.44.07.44.44.71.96.7h17.55c3.03,0,4.44,2.46,3.15,5.48ZM680.04,138.27c.77-4.04,4.99-8.08,9.43-9.03s7.42,1.55,6.66,5.58c-.77,4.04-4.99,8.08-9.43,9.03-4.44.95-7.42-1.55-6.66-5.58ZM734.89,163.89c.55,1.15.4,2.68-.4,4.22-1.57,2.86-4.93,4.99-7.79,4.95h-10.87c-2.46.04-5.29,1.74-6.87,4.12-2.44,3.51-6.74,5.13-9.84,5.01-3.9-.19-5.61-3.5-3.87-7.49.77-1.74,2.14-3.42,3.85-4.72,2.46-1.82,4.11-4.42,4.29-6.76l.51-8.95c.19-3.37,2.63-7.15,6.25-9.69l48.69-34.15c1.56-1.09,3.32-1.67,4.83-1.6,1.51.08,2.65.8,3.12,2,.71,2.3-.87,5.48-3.73,7.52l-42.07,29.5c-3.4,2.38-5.64,5.97-5.68,9.09-.04,3.12,2.14,5.15,5.51,5.15h10.78c1.55,0,2.75.65,3.3,1.8ZM805.39,176.3l-48.69,34.15c-1.56,1.09-3.31,1.67-4.83,1.6-1.51-.08-2.65-.8-3.12-2-.71-2.3.87-5.48,3.73-7.52l37.22-26.11c.94-.63,1.98-.99,2.91-1,.78-.04,1.65-.68,1.96-1.45.31-.77-.05-1.38-.82-1.38h-48.2c-6.84,0-10.02-5.54-7.11-12.38s10.82-12.38,17.66-12.38h9.12c1.99-.03,3.38,1.01,3.65,2.72.27,1.71-.63,3.82-2.35,5.53-1.72,1.71-4,2.75-5.97,2.72h-1.93c-.78.02-1.65.65-1.98,1.42s.02,1.4.78,1.42h43.03c.78-.02,1.65-.65,1.98-1.42s-.02-1.4-.78-1.42h-8.37c-1.99.03-3.38-1.01-3.65-2.72-.27-1.71.63-3.82,2.35-5.53,1.72-1.71,4-2.75,5.97-2.72h1.75c2.47-.04,5.29-1.74,6.88-4.12,2.44-3.51,6.74-5.13,9.84-5.01,3.9.2,5.61,3.5,3.88,7.49-.77,1.74-2.14,3.42-3.85,4.72-2.46,1.82-4.11,4.42-4.29,6.76l-.51,8.95c-.19,3.37-2.63,7.15-6.25,9.69Z"/>
    </g>
    <g id="_41-2" data-name="41">
      <path d="M52.71,230.28c-1.56-11.96,11.91-25.22,37.22-38.78C28.23,219.23-5.67,245.98.78,266.72c14.81,47.64,236.83,45.54,495.91-4.69,92.17-17.87,176.59-39.42,246.47-61.92-70.71,20.37-162.38,39.03-263.28,52.21-230.39,30.1-421.64,20.23-427.17-22.04Z"/>
      <path d="M938.97,84.83c-14.81-47.64-236.84-45.56-495.91,4.69-80.32,15.58-108.04,21.55-171.34,38.21-1.08.28-.71,1.9.39,1.68,66.94-13.73,99.46-18.64,187.77-30.18,230.39-30.1,421.64-20.23,427.17,22.04,1.56,11.96-40.58,40.14-65.9,53.7,61.7-27.74,124.27-69.4,117.82-90.14Z"/>
    </g>
    <g id="_37-2" data-name="37">
      <path class="cls-1" d="M134.4,261.28l-25.23-3.18c-.93-.12-1.53-.63-1.6-1.36l-1.78-19.86c-.17-1.85-3.4-1.85-5.47,0l-22.26,19.86c-.82.73-1.95,1.24-3,1.36l-28.52,3.18c-2.66.3-4.95,2.8-3.88,4.24l11.48,15.46c.42.57.33,1.4-.26,2.2l-15.85,21.83c-1.48,2.03.34,3.58,3.07,2.62l29.36-10.3c1.09-.38,2.15-.38,2.84,0l18.72,10.3c1.74.96,5.16-.59,5.78-2.62l6.67-21.83c.25-.81,1-1.63,2.01-2.2l27.42-15.46c2.55-1.44,2.85-3.95.5-4.24Z"/>
      <path class="cls-1" d="M166.65,287.26l-14.33-1.81c-.53-.07-.87-.36-.91-.77l-1.01-11.27c-.09-1.05-1.93-1.05-3.11,0l-12.64,11.27c-.47.42-1.1.71-1.7.77l-16.19,1.81c-1.51.17-2.81,1.59-2.2,2.41l6.51,8.77c.24.32.19.79-.15,1.25l-9,12.39c-.84,1.15.19,2.03,1.75,1.49l16.66-5.85c.62-.22,1.22-.22,1.61,0l10.63,5.85c.99.54,2.93-.34,3.28-1.49l3.78-12.39c.14-.46.57-.93,1.14-1.25l15.57-8.77c1.45-.82,1.62-2.24.28-2.41Z"/>
    </g>
    <path d="M594.04,89.11c-2.37,0-4.56-1.15-5.85-3.08-1.31-1.95-1.53-4.46-.6-6.71l11.42-27.34h-26.29c-2.41-.02-4.58-1.18-5.86-3.11-1.29-1.96-1.5-4.47-.56-6.72,1.24-2.98,4.2-4.99,7.37-5.01h28.7c1.12,0,3.44-1.44,4.18-3.22l12.07-28.91c1.27-3,4.25-5,7.42-5,2.37,0,4.56,1.15,5.85,3.07,1.31,1.95,1.54,4.45.61,6.71l-11.42,27.35h26.29c2.41.02,4.58,1.18,5.86,3.11,1.29,1.96,1.51,4.47.57,6.72-1.25,2.99-4.21,5-7.38,5.02h-28.7c-1.12,0-3.44,1.44-4.18,3.22l-12.07,28.91c-1.28,3.01-4.26,5-7.42,5Z"/>
    <path id="_36-4" data-name="36" class="cls-3" d="M647.36,43.38h0s-28.67,0-28.67,0h0c-3.86,0-5.68-3.16-4.05-7.06h0l12.07-28.91h0c.27-.64-.04-1.17-.68-1.17s-1.38.52-1.66,1.17h0l-12.07,28.91h0c-1.63,3.9-6.08,7.06-9.94,7.06h0s-28.67,0-28.67,0h0c-.64,0-1.38.53-1.65,1.18s.03,1.18.66,1.18h0s28.67,0,28.67,0h0c3.86,0,5.68,3.16,4.05,7.06h0l-12.07,28.91h0c-.27.64.04,1.17.68,1.17s1.38-.52,1.66-1.17h0l12.07-28.91h0c1.63-3.9,6.08-7.06,9.94-7.06h0s28.67,0,28.67,0h0c.64,0,1.38-.53,1.65-1.18s-.03-1.18-.66-1.18Z"/>
    <path d="M664.6,135.45c-2.46,0-4.72-1.19-6.05-3.17-1.35-2.02-1.58-4.62-.62-6.97l15.8-37.83c.09-.22.16-.41.2-.58h-37.21c-2.5-.02-4.74-1.22-6.06-3.21-1.34-2.02-1.55-4.63-.58-6.98,1.32-3.15,4.56-5.36,7.88-5.39h37.52c2.26,0,5.99-2.41,7.24-5.39l15.78-37.79c1.35-3.17,4.6-5.36,7.93-5.36,2.46,0,4.72,1.19,6.05,3.17,1.35,2.02,1.58,4.62.61,6.97l-15.79,37.82c-.09.22-.16.41-.2.58h37.21c2.5.02,4.74,1.22,6.06,3.21,1.34,2.02,1.55,4.63.57,6.98-1.32,3.15-4.55,5.36-7.88,5.38h-37.52c-2.26,0-5.99,2.41-7.24,5.39l-15.78,37.79c-1.35,3.17-4.6,5.36-7.93,5.36Z"/>
    <path id="_36-5" data-name="36" class="cls-3" d="M734.31,77.58h0s-37.47,0-37.47,0h0c-5.05,0-7.42-4.13-5.29-9.22h0l15.78-37.79h0c.35-.84-.05-1.52-.89-1.52s-1.81.68-2.17,1.52h0l-15.78,37.79h0c-2.13,5.09-7.95,9.22-13,9.22h0s-37.47,0-37.47,0h0c-.84,0-1.8.69-2.15,1.54s.03,1.54.87,1.54h0s37.47,0,37.47,0h0c5.05,0,7.42,4.13,5.29,9.23h0l-15.78,37.79h0c-.35.84.05,1.52.89,1.52s1.81-.68,2.17-1.52h0l15.78-37.79h0c2.13-5.09,7.95-9.22,13-9.22h0s37.47,0,37.47,0h0c.84,0,1.8-.69,2.15-1.54s-.03-1.54-.87-1.54Z"/>
    <path d="M758.09,85.45c-2.3,0-4.43-1.12-5.69-3-1.27-1.9-1.5-4.33-.61-6.5l7.83-18.76h-17.77c-2.34-.02-4.46-1.15-5.7-3.04-1.26-1.9-1.47-4.34-.57-6.51,1.18-2.82,3.98-4.72,6.98-4.74h21.86c.43-.06,1.51-.83,1.81-1.53l9.19-22c1.21-2.84,4.03-4.72,7.02-4.72,2.31,0,4.43,1.12,5.69,3.01,1.27,1.9,1.49,4.33.6,6.51l-7.83,18.75h17.77c2.35.02,4.46,1.16,5.71,3.04,1.26,1.91,1.47,4.34.55,6.52-1.17,2.8-3.97,4.71-6.97,4.73h-21.86c-.43.06-1.51.83-1.81,1.53l-9.19,22.01c-1.21,2.84-4.02,4.72-7.02,4.72Z"/>
    <path id="_36-6" data-name="36" class="cls-3" d="M798.67,49.15h0s-21.82,0-21.82,0h0c-2.94,0-4.32-2.4-3.08-5.37h0l9.19-22h0c.2-.49-.03-.89-.52-.89s-1.05.4-1.26.89h0l-9.19,22h0c-1.24,2.97-4.63,5.37-7.57,5.37h0s-21.82,0-21.82,0h0c-.49,0-1.05.4-1.25.9s.02.89.5.9h0s21.82,0,21.82,0h0c2.94,0,4.32,2.4,3.08,5.37h0l-9.19,22h0c-.2.49.03.89.52.89s1.05-.4,1.26-.89h0l9.19-22h0c1.24-2.97,4.63-5.37,7.57-5.37h0s21.82,0,21.82,0h0c.49,0,1.05-.4,1.25-.9s-.02-.89-.5-.9Z"/>
  </g>
</svg>