<svg width="624" height="210" xmlns="http://www.w3.org/2000/svg" xmlns:xlink="http://www.w3.org/1999/xlink" xml:space="preserve" overflow="hidden"><g><path d="M561.38 111.279C561.227 111.033 561.061 110.8 560.882 110.581 560.835 110.502 560.802 110.415 560.749 110.329 560.596 110.083 560.43 109.851 560.251 109.625 560.204 109.545 560.171 109.459 560.118 109.379 559.965 109.134 559.799 108.901 559.62 108.676 559.573 108.596 559.54 108.51 559.487 108.43 559.334 108.184 559.168 107.952 558.989 107.726 558.943 107.646 558.909 107.56 558.856 107.48 558.704 107.235 558.538 107.002 558.358 106.776 558.312 106.697 558.279 106.61 558.225 106.531 558.073 106.285 557.907 106.053 557.727 105.827 557.681 105.747 557.648 105.661 557.595 105.581 557.442 105.335 557.276 105.103 557.097 104.877 557.05 104.798 557.017 104.711 556.964 104.632 556.811 104.386 556.645 104.153 556.466 103.928 556.419 103.848 556.386 103.762 556.333 103.682 556.18 103.436 556.014 103.204 555.835 102.978 555.788 102.898 555.755 102.812 555.702 102.732 555.549 102.487 555.383 102.254 555.204 102.029 555.158 101.949 555.124 101.863 555.071 101.783 554.919 101.537 554.753 101.305 554.573 101.079 554.527 100.999 554.494 100.913 554.44 100.833 554.288 100.588 554.122 100.355 553.943 100.129 553.896 100.05 553.863 99.9634 553.81 99.8838 553.657 99.6381 553.491 99.4056 553.312 99.1799 553.265 99.1002 553.232 99.0139 553.179 98.9342 553.026 98.6885 552.86 98.4561 552.681 98.2303 552.634 98.1506 552.601 98.0643 552.548 97.9846 552.395 97.7389 552.229 97.5065 552.05 97.2807 552.003 97.2011 551.97 97.1147 551.917 97.0351 551.764 96.7894 551.598 96.557 551.419 96.3312 551.373 96.2515 551.339 96.1652 551.286 96.0855 551.134 95.8398 550.968 95.6074 550.788 95.3816 550.742 95.3019 550.709 95.2156 550.656 95.1359 550.503 94.8902 550.337 94.6578 550.157 94.4321 550.111 94.3524 550.078 94.266 550.025 94.1864 549.872 93.9407 549.706 93.7083 549.527 93.4825 549.48 93.4028 549.447 93.3165 549.394 93.2368 549.241 92.9911 549.075 92.7587 548.896 92.5329 548.849 92.4532 548.816 92.3669 548.763 92.2872 548.61 92.0415 548.444 91.8091 548.265 91.5834 548.219 91.5037 548.185 91.4173 548.132 91.3377 546.93 89.4053 544.825 88.2233 542.315 88.0972 542.189 88.0972 542.07 88.0905 541.937 88.0905 538.238 88.0905 534.473 90.0694 532.348 93.1372L532.302 93.2036C531.923 93.7747 531.233 94.1332 530.987 94.1598L529.838 94.1598C528.749 94.1598 527.627 94.4055 526.544 94.8504 526.611 93.9938 526.525 93.1372 526.272 92.3204L526.226 92.1743 526.166 92.0283C525.934 91.4439 525.615 90.9127 525.223 90.4412 525.037 90.1026 524.831 89.7838 524.592 89.4916 524.406 89.153 524.2 88.8343 523.961 88.5421 523.776 88.2034 523.57 87.8847 523.331 87.5925 523.145 87.2539 522.939 86.9351 522.7 86.6429 522.514 86.3043 522.308 85.9856 522.069 85.6934 521.883 85.3547 521.677 85.036 521.438 84.7438 521.252 84.4052 521.046 84.0864 520.807 83.7943 520.621 83.4556 520.415 83.1369 520.176 82.8447 519.99 82.506 519.785 82.1873 519.546 81.8951 519.36 81.5565 519.154 81.2377 518.915 80.9455 518.729 80.6069 518.523 80.2882 518.284 79.996 518.098 79.6573 517.892 79.3386 517.653 79.0464 517.467 78.7078 517.261 78.389 517.022 78.0968 516.836 77.7582 516.63 77.4395 516.391 77.1473 516.206 76.8086 516 76.4899 515.761 76.1977 515.575 75.8591 515.369 75.5403 515.13 75.2482 514.944 74.9095 514.738 74.5908 514.499 74.2986 514.313 73.9599 514.107 73.6412 513.868 73.349 513.682 73.0104 513.476 72.6916 513.237 72.3995 513.051 72.0608 512.846 71.7421 512.606 71.4499 511.59 69.5773 509.638 68.3621 507.341 68.2493 507.215 68.2493 507.088 68.2426 506.962 68.2426 505.183 68.2426 503.29 68.8801 501.643 70.0289L470.115 92.1411C470.049 92.0482 469.982 91.9486 469.909 91.8556 469.723 91.5236 469.517 91.2049 469.278 90.906 469.092 90.574 468.887 90.2553 468.648 89.9565 468.462 89.6245 468.256 89.3057 468.017 89.0069 467.831 88.6749 467.625 88.3561 467.386 88.0573 467.2 87.7253 466.994 87.4066 466.755 87.1078 466.569 86.7757 466.363 86.457 466.124 86.1582 465.938 85.8262 465.732 85.5075 465.493 85.2086 465.294 84.8501 465.075 84.5048 464.809 84.186 463.455 82.5525 461.429 81.6494 459.099 81.6494 458.435 81.6494 457.744 81.7225 457.053 81.8752 452.531 82.8447 448.521 86.7757 447.711 91.0256 447.505 92.1013 447.511 93.1505 447.717 94.1332 446.402 94.1664 445.068 94.4055 443.76 94.8105L441.522 90.9127C441.369 90.6471 441.19 90.3947 441.004 90.1623L440.891 89.9631C440.738 89.6975 440.559 89.4452 440.373 89.2128L440.26 89.0135C440.107 88.7479 439.928 88.4956 439.742 88.2632L439.629 88.064C439.477 87.7984 439.297 87.546 439.111 87.3136L438.998 87.1144C438.846 86.8488 438.666 86.5965 438.481 86.3641L438.368 86.1648C438.215 85.8992 438.036 85.6469 437.85 85.4145L437.737 85.2153C437.584 84.9497 437.405 84.6973 437.219 84.4649L437.106 84.2657C436.953 84.0001 436.774 83.7478 436.588 83.5154L436.475 83.3161C436.322 83.0505 436.143 82.7982 435.957 82.5658L435.844 82.3666C435.692 82.101 435.512 81.8486 435.326 81.6162L435.213 81.417C435.061 81.1514 434.881 80.8991 434.696 80.6667L434.583 80.4674C434.43 80.2018 434.251 79.9495 434.065 79.7171L433.952 79.5179C433.799 79.2523 433.62 78.9999 433.434 78.7675L433.321 78.5683C433.168 78.3027 432.989 78.0504 432.803 77.818L432.69 77.6187C432.537 77.3531 432.358 77.1008 432.172 76.8684L432.059 76.6692C431.907 76.4036 431.727 76.1512 431.541 75.9188L431.428 75.7196C431.276 75.454 431.096 75.2017 430.911 74.9693L430.798 74.7701C430.645 74.5044 430.466 74.2521 430.28 74.0197L430.167 73.8205C430.014 73.5549 429.835 73.3025 429.649 73.0701L429.536 72.8709C429.383 72.6053 429.204 72.353 429.018 72.1206L428.905 71.9213C428.752 71.6557 428.573 71.4034 428.387 71.171L428.274 70.9718C427.172 69.0527 425.087 67.904 422.696 67.904 422.511 67.904 422.325 67.904 422.132 67.9239 420.18 68.0633 418.194 68.9199 416.508 70.3675 413.307 73.1764 412.318 77.207 414.077 80.1952L422.066 94.1067 395.963 94.1067C392.629 94.1399 389.169 95.4945 386.294 97.6924 386.108 97.4401 385.909 97.2011 385.69 96.9687 383.97 95.1226 381.447 94.1 378.591 94.1L347.408 94.1C346.618 94.1 345.808 94.1797 344.998 94.3324 345.038 93.602 344.971 92.8716 344.772 92.1743L344.746 92.0814C344.513 91.3443 344.141 90.6869 343.677 90.1092 343.497 89.7705 343.285 89.4518 343.046 89.1596 342.867 88.821 342.654 88.5022 342.415 88.2101 342.236 87.8714 342.023 87.5527 341.784 87.2605 341.605 86.9218 341.392 86.6031 341.153 86.3109 340.974 85.9723 340.762 85.6535 340.522 85.3614 340.343 85.0227 340.131 84.704 339.892 84.4118 339.712 84.0731 339.5 83.761 339.261 83.4622 339.082 83.1236 338.869 82.8048 338.63 82.5127 338.451 82.174 338.238 81.8553 337.999 81.5631 337.82 81.2244 337.607 80.9057 337.368 80.6135 337.189 80.2749 336.977 79.9561 336.737 79.664 336.558 79.3253 336.346 79.0066 336.107 78.7144 335.927 78.3757 335.715 78.057 335.476 77.7648 335.297 77.4262 335.084 77.1074 334.845 76.8153 334.666 76.4766 334.453 76.1579 334.214 75.8657 334.035 75.527 333.822 75.2083 333.583 74.9161 333.404 74.5775 333.192 74.2587 332.952 73.9666 332.773 73.6279 332.561 73.3092 332.322 73.017 332.142 72.6783 331.93 72.3596 331.691 72.0674 331.512 71.7288 331.299 71.41 331.06 71.1179 330.084 69.2719 328.225 68.0633 325.967 67.8907 325.781 67.8774 325.588 67.8708 325.396 67.8708 323.61 67.8708 321.724 68.5082 320.077 69.657L287.752 92.3337C284.345 94.7242 282.108 98.3565 281.908 101.809L281.583 107.58C281.563 107.753 281.351 108.257 280.813 108.815 280.633 108.516 280.441 108.224 280.235 107.952 280.042 107.62 279.83 107.301 279.604 107.002 279.412 106.67 279.199 106.351 278.973 106.053 278.781 105.721 278.568 105.402 278.342 105.103 278.15 104.771 277.937 104.452 277.712 104.153 277.519 103.821 277.307 103.503 277.081 103.204 276.888 102.872 276.676 102.553 276.45 102.254 276.257 101.922 276.045 101.604 275.819 101.305 275.627 100.973 275.414 100.654 275.188 100.355 274.996 100.023 274.783 99.7045 274.557 99.4056 274.365 99.0736 274.152 98.7549 273.927 98.4561 272.313 95.6605 269.325 94.0602 265.693 94.0602L239.404 94.0602C239.277 93.861 239.131 93.6684 238.985 93.4825 238.806 93.1505 238.593 92.8317 238.354 92.5329 238.175 92.2009 237.963 91.8822 237.724 91.5834 237.518 91.2049 237.285 90.8463 237 90.5143 235.632 88.9139 233.454 87.9976 231.024 87.9976 230.897 87.9976 230.778 87.9976 230.612 88.0042 226.468 88.2034 222.258 91.1584 220.452 95.1094 219.41 94.4321 218.148 94.0602 216.787 94.0602L203.101 94.0602C202.975 93.861 202.829 93.6684 202.683 93.4825 202.503 93.1505 202.291 92.8317 202.052 92.5329 201.872 92.2009 201.66 91.8822 201.421 91.5834 201.215 91.2049 200.983 90.8463 200.697 90.5143 199.329 88.9139 197.151 87.9976 194.728 87.9976 194.601 87.9976 194.482 87.9976 194.316 88.0042 192.085 88.1105 189.84 89.0268 187.954 90.4611 187.868 90.335 187.788 90.2088 187.695 90.0959L187.583 89.8967C187.43 89.6311 187.25 89.3854 187.065 89.1463L186.952 88.9471C186.799 88.6815 186.62 88.4358 186.434 88.1968L186.321 87.9976C186.168 87.732 185.989 87.4863 185.803 87.2472L185.69 87.048C185.537 86.7824 185.358 86.5367 185.172 86.2977L185.059 86.0984C184.906 85.8328 184.727 85.5871 184.541 85.3481L184.428 85.1489C184.276 84.8833 184.096 84.6376 183.91 84.3985L183.798 84.1993C183.645 83.9337 183.466 83.688 183.28 83.449L183.167 83.2497C183.014 82.9841 182.835 82.7384 182.649 82.4994L182.536 82.3002C182.383 82.0346 182.204 81.7889 182.018 81.5498L181.905 81.3506C181.752 81.085 181.573 80.8393 181.387 80.6003L181.274 80.401C181.121 80.1354 180.942 79.8897 180.756 79.6507L180.643 79.4515C180.491 79.1859 180.311 78.9402 180.125 78.7011L180.013 78.5019C179.86 78.2363 179.681 77.9906 179.495 77.7515L179.382 77.5523C179.229 77.2867 179.05 77.041 178.864 76.802L178.751 76.6028C178.598 76.3372 178.419 76.0915 178.233 75.8524L178.12 75.6532C177.967 75.3876 177.788 75.1419 177.602 74.9029L177.489 74.7036C177.336 74.438 177.157 74.1923 176.971 73.9533L176.858 73.7541C176.706 73.4885 176.526 73.2428 176.34 73.0037L176.228 72.8045C176.075 72.5389 175.896 72.2932 175.71 72.0542L175.597 71.8549C175.444 71.5893 175.265 71.3436 175.079 71.1046L174.966 70.9054C173.864 68.9863 171.779 67.8376 169.388 67.8376 169.202 67.8376 169.016 67.8376 168.83 67.8575 166.878 67.9969 164.893 68.8535 163.206 70.3011 160.005 73.11 159.016 77.1406 160.776 80.1288L168.764 94.0403 142.661 94.0403C141.147 94.0536 139.606 94.3457 138.105 94.8637 138.039 94.7773 137.979 94.6844 137.913 94.6047 137.727 94.2727 137.521 93.9539 137.282 93.6551 137.096 93.3231 136.89 93.0044 136.651 92.7056 136.465 92.3736 136.259 92.0548 136.02 91.756 135.834 91.424 135.629 91.1052 135.39 90.8064 135.204 90.4744 134.998 90.1557 134.759 89.8569 134.573 89.5249 134.367 89.2061 134.128 88.9073 133.942 88.5753 133.736 88.2565 133.497 87.9577 133.311 87.6257 133.105 87.307 132.866 87.0082 132.68 86.6761 132.474 86.3574 132.235 86.0586 132.049 85.7266 131.844 85.4078 131.605 85.109 131.405 84.7505 131.186 84.4118 130.921 84.0931 129.566 82.4595 127.541 81.5565 125.21 81.5565 124.546 81.5565 123.855 81.6295 123.165 81.7822 118.649 82.7517 114.632 86.6828 113.828 90.9326 113.623 92.0083 113.629 93.0575 113.835 94.0403 112.341 94.0735 110.834 94.3723 109.359 94.8902L109.359 94.8902C109.207 94.618 109.027 94.3656 108.842 94.1332L108.729 93.934C108.576 93.6684 108.397 93.4227 108.211 93.1837L108.098 92.9845C107.945 92.7188 107.766 92.4665 107.58 92.2341L107.467 92.0349C107.314 91.7693 107.135 91.5236 106.949 91.2845L106.836 91.0853C106.683 90.8197 106.504 90.574 106.318 90.335L106.205 90.1358C106.053 89.8701 105.873 89.6245 105.687 89.3854L105.575 89.1862C105.422 88.9206 105.243 88.6749 105.057 88.4358L104.944 88.2366C104.791 87.971 104.612 87.7253 104.426 87.4863L104.313 87.2871C104.16 87.0214 103.981 86.7757 103.795 86.5367L103.682 86.3375C103.529 86.0719 103.35 85.8195 103.164 85.5871L103.051 85.3879C102.898 85.1223 102.719 84.8766 102.533 84.6376L102.42 84.4384C102.268 84.1727 102.088 83.9271 101.902 83.688L101.79 83.4888C101.637 83.2232 101.458 82.9775 101.272 82.7384L101.159 82.5392C101.006 82.2736 100.827 82.0213 100.641 81.7889L100.528 81.5897C99.4256 79.6706 97.3405 78.5218 94.95 78.5218 94.7641 78.5218 94.5781 78.5218 94.3856 78.5417 92.4333 78.6812 90.4479 79.5378 88.7612 80.9854 85.5672 83.7943 84.5712 87.8249 86.3308 90.8064L88.1769 94.0203 62.0405 94.0203C58.0497 94.0203 53.6937 95.9792 50.3801 99.2662 46.8674 102.752 45.1343 107.128 45.7319 110.973 45.9643 112.474 46.5487 113.802 47.392 114.911 47.5779 115.243 47.7971 115.555 48.0228 115.86 48.2088 116.192 48.4279 116.504 48.6537 116.81 48.8396 117.142 49.0587 117.454 49.2845 117.76 49.4704 118.092 49.6895 118.404 49.9153 118.709 50.1012 119.041 50.3204 119.353 50.5461 119.659 50.7321 119.991 50.9512 120.303 51.177 120.608 51.3629 120.94 51.582 121.252 51.8078 121.558 51.9937 121.89 52.2129 122.202 52.4386 122.507 52.6246 122.839 52.8437 123.151 53.0695 123.457 53.2554 123.789 53.4745 124.101 53.7003 124.406 53.8862 124.738 54.1054 125.051 54.3311 125.356 54.5171 125.688 54.7362 126 54.962 126.306 55.1479 126.638 55.367 126.95 55.5928 127.255 55.7787 127.587 55.9979 127.899 56.2236 128.205 56.4095 128.537 56.6287 128.849 56.8545 129.154 57.0404 129.486 57.2595 129.798 57.4853 130.104 57.6712 130.436 57.8903 130.748 58.1161 131.053 58.302 131.385 58.5212 131.698 58.7469 132.003 58.9329 132.335 59.152 132.647 59.3778 132.953 59.5637 133.285 59.7828 133.597 60.0086 133.902 61.5691 136.665 64.6037 138.378 68.2825 138.378L94.6445 138.378C94.7707 138.577 94.9168 138.776 95.0695 138.962 95.2554 139.294 95.4613 139.613 95.7003 139.912 95.8863 140.244 96.0921 140.562 96.3312 140.861 96.5304 141.226 96.7562 141.578 97.0284 141.904 98.3963 143.517 100.581 144.447 103.018 144.447 103.144 144.447 103.264 144.447 103.43 144.44 107.693 144.234 112.022 141.114 113.735 136.99 113.842 136.731 113.935 136.472 114.014 136.213 115.655 137.588 117.846 138.358 120.309 138.384L136.591 138.384C138.703 138.384 140.841 137.528 142.561 136.113 144.215 137.554 146.446 138.364 148.976 138.384L175.265 138.384C175.391 138.584 175.53 138.783 175.69 138.969 175.876 139.301 176.081 139.619 176.321 139.918 176.506 140.25 176.712 140.569 176.951 140.868 177.151 141.233 177.376 141.585 177.649 141.91 179.016 143.531 181.201 144.454 183.638 144.454 183.764 144.454 183.884 144.454 184.05 144.447 186.281 144.341 188.525 143.424 190.411 141.99 190.498 142.116 190.577 142.242 190.67 142.355L190.783 142.554C190.936 142.82 191.115 143.066 191.301 143.305L191.414 143.504C191.567 143.77 191.746 144.015 191.932 144.254L192.045 144.454C192.198 144.719 192.377 144.965 192.563 145.204L192.676 145.403C192.828 145.669 193.008 145.921 193.194 146.154L193.306 146.353C193.459 146.618 193.638 146.864 193.824 147.103L193.937 147.302C194.09 147.568 194.269 147.814 194.455 148.053L194.568 148.252C194.721 148.517 194.9 148.763 195.086 149.002L195.199 149.201C195.352 149.467 195.531 149.713 195.717 149.952L195.83 150.151C195.983 150.417 196.162 150.662 196.348 150.901L196.461 151.101C196.613 151.366 196.793 151.612 196.979 151.851L197.091 152.05C197.244 152.316 197.423 152.568 197.609 152.8L197.722 153C197.875 153.265 198.054 153.511 198.24 153.75L198.353 153.949C198.506 154.215 198.685 154.461 198.871 154.7L198.984 154.899C199.137 155.164 199.316 155.417 199.502 155.649L199.615 155.848C199.768 156.114 199.947 156.36 200.133 156.599L200.246 156.798C200.398 157.064 200.578 157.309 200.764 157.548L200.876 157.748C201.029 158.013 201.208 158.259 201.394 158.498L201.507 158.697C201.66 158.963 201.839 159.208 202.025 159.447L202.138 159.647C202.291 159.912 202.47 160.158 202.656 160.397L202.769 160.596C202.922 160.862 203.101 161.108 203.287 161.347L203.4 161.546C204.502 163.465 206.587 164.614 208.978 164.614 209.097 164.614 209.223 164.614 209.349 164.607 211.242 164.514 213.201 163.737 214.854 162.409L214.961 162.323C218.214 159.521 219.31 155.43 217.59 152.322L214.848 147.541 224.084 147.541C227.723 147.541 231.448 144.991 232.943 141.479 233.487 140.197 233.68 138.889 233.527 137.667 234.603 138.152 235.831 138.411 237.146 138.411L243.574 138.411C245.114 138.411 246.668 137.953 248.063 137.163 249.152 137.973 250.52 138.411 252.02 138.411L271.802 138.411C276.211 138.411 280.932 136.034 284.232 132.461 284.272 132.534 284.305 132.621 284.352 132.694 284.505 132.939 284.671 133.172 284.85 133.391 284.896 133.471 284.93 133.557 284.983 133.637 285.135 133.882 285.302 134.115 285.481 134.334 285.527 134.413 285.56 134.5 285.614 134.579 285.766 134.825 285.932 135.058 286.112 135.277 286.158 135.356 286.191 135.443 286.244 135.522 286.397 135.768 286.563 136 286.742 136.22 286.789 136.299 286.822 136.386 286.875 136.465 287.028 136.711 287.194 136.943 287.373 137.163 287.42 137.242 287.453 137.329 287.506 137.408 287.659 137.654 287.825 137.886 288.004 138.105 288.051 138.185 288.084 138.271 288.137 138.351 288.29 138.597 288.456 138.829 288.635 139.048 288.681 139.128 288.715 139.214 288.768 139.294 288.921 139.54 289.087 139.772 289.266 139.991 289.312 140.071 289.345 140.157 289.399 140.237 289.551 140.483 289.717 140.715 289.897 140.941 289.943 141.021 289.976 141.107 290.029 141.187 291.231 143.126 293.336 144.301 295.846 144.427 295.966 144.427 296.092 144.434 296.218 144.434 299.95 144.434 303.728 142.428 305.873 139.287 306.245 138.736 306.909 138.384 307.095 138.364L336.08 138.364C339.427 138.331 342.893 136.97 345.768 134.759 347.455 137.05 350.197 138.351 353.471 138.358L384.654 138.358C387.981 138.358 391.58 136.997 394.621 134.706 396.288 137.003 399.057 138.331 402.304 138.364L428.593 138.364C428.719 138.564 428.865 138.763 429.018 138.949 429.204 139.281 429.41 139.6 429.649 139.898 429.835 140.23 430.041 140.549 430.28 140.848 430.479 141.213 430.705 141.565 430.977 141.89 432.345 143.504 434.53 144.434 436.967 144.434 437.093 144.434 437.212 144.434 437.378 144.427 441.641 144.221 445.971 141.1 447.684 136.977 447.79 136.718 447.883 136.465 447.963 136.206 449.603 137.581 451.788 138.345 454.251 138.371 454.251 138.371 465.985 138.371 469.584 138.371 469.59 138.378 469.597 138.391 469.604 138.398 469.65 138.484 469.69 138.57 469.743 138.65 469.896 138.896 470.062 139.128 470.241 139.347 470.288 139.434 470.327 139.52 470.381 139.6 470.533 139.845 470.699 140.078 470.879 140.297 470.925 140.383 470.965 140.469 471.018 140.549 471.171 140.795 471.337 141.027 471.516 141.246 471.563 141.333 471.602 141.419 471.656 141.499 472.857 143.438 474.962 144.613 477.473 144.739 477.599 144.739 477.725 144.746 477.851 144.746 481.55 144.746 485.315 142.767 487.44 139.699L487.486 139.633C487.865 139.062 488.549 138.703 488.794 138.677L493.217 138.677C493.23 139.301 493.323 139.918 493.509 140.516L493.555 140.662 493.608 140.801C493.841 141.386 494.16 141.917 494.551 142.388 494.737 142.727 494.943 143.046 495.182 143.338 495.368 143.677 495.574 143.995 495.813 144.288 495.999 144.626 496.205 144.945 496.444 145.237 496.63 145.576 496.836 145.895 497.075 146.187 497.261 146.525 497.466 146.844 497.706 147.136 497.891 147.475 498.097 147.794 498.336 148.086 498.522 148.425 498.728 148.743 498.967 149.035 499.153 149.374 499.359 149.693 499.598 149.985 499.784 150.324 499.99 150.642 500.229 150.935 500.415 151.273 500.621 151.592 500.86 151.884 501.046 152.223 501.251 152.542 501.491 152.834 501.676 153.172 501.882 153.491 502.121 153.783 502.307 154.122 502.513 154.441 502.752 154.733 502.938 155.071 503.144 155.39 503.383 155.682 503.569 156.021 503.775 156.34 504.014 156.632 504.2 156.971 504.406 157.289 504.645 157.582 504.831 157.92 505.036 158.239 505.276 158.531 505.461 158.87 505.667 159.188 505.906 159.481 506.092 159.819 506.298 160.138 506.537 160.43 506.723 160.769 506.929 161.088 507.168 161.38 508.184 163.252 510.136 164.468 512.434 164.58 512.56 164.58 512.686 164.587 512.812 164.587 514.592 164.587 516.484 163.95 518.131 162.801L550.456 140.124C553.863 137.734 556.101 134.101 556.3 130.648L556.632 124.785C556.665 124.572 557.01 123.842 557.927 123.165 559.587 121.896 560.928 120.236 561.718 118.45 562.841 115.874 562.747 113.211 561.466 111.146ZM520.323 103.337 520.017 103.337 520.329 103.118C520.329 103.191 520.316 103.264 520.323 103.337Z" transform="matrix(1 0 0 1.00003 0.0973354 0)"/><path d="M96.8624 83.7212C96.4308 82.9708 95.5543 82.5857 94.4652 82.6654 93.3762 82.7451 92.1743 83.2763 91.1849 84.1329 89.485 85.627 88.7944 87.6722 89.5647 88.9538L93.3895 95.614C93.6352 96.039 94.1067 96.2781 94.7109 96.2781 95.2156 96.2913 95.4414 96.7097 95.2289 97.221 95.0164 97.7323 94.4254 98.1506 93.9141 98.1639L61.9077 98.1639C58.9661 98.1373 55.553 99.6978 52.9831 102.254 50.4067 104.811 49.0654 107.965 49.4638 110.522 49.8622 113.078 51.9406 114.639 54.9088 114.612L83.8606 114.612C85.4676 114.625 86.3906 115.734 86.1051 117.308 85.7067 119.665 87.6589 120.754 89.7971 120.675 92.4997 120.542 95.5011 118.35 96.6101 115.701 97.0749 114.566 97.1214 113.463 96.7429 112.607 96.1386 111.345 96.5437 109.565 97.7854 107.965L102.42 102.135C104.2 99.897 104.718 97.387 103.748 95.7003L96.8757 83.7345ZM92.3736 106.856C92.0747 107.148 91.6763 107.328 91.3443 107.321L62.771 107.321C62.2663 107.308 62.0405 106.889 62.253 106.378 62.4655 105.867 63.0565 105.448 63.5678 105.435L92.1411 105.435C92.4864 105.428 92.7321 105.601 92.7786 105.9 92.8251 106.192 92.6724 106.557 92.3736 106.856ZM117.56 91.8158C118.072 89.1331 120.874 86.4504 123.822 85.8195 126.77 85.1887 128.749 86.8488 128.245 89.5249 127.733 92.2075 124.931 94.8902 121.983 95.5211 119.034 96.1519 117.056 94.4918 117.56 91.8158ZM128.338 110.96C127.481 112.972 125.157 114.605 123.145 114.605L106.863 114.605C102.367 114.566 100.295 110.893 102.215 106.385 104.134 101.876 109.333 98.2038 113.868 98.1573L125.555 98.1573C127.567 98.1573 128.504 99.7908 127.647 101.796 126.79 103.802 124.466 105.435 122.454 105.435L115.402 105.435C115.064 105.428 114.672 105.601 114.373 105.9 114.074 106.192 113.921 106.557 113.968 106.856 114.014 107.148 114.26 107.328 114.605 107.321L126.259 107.321C128.271 107.321 129.207 108.954 128.351 110.96ZM171.34 73.017C170.909 72.2666 170.032 71.8815 168.943 71.9612 167.854 72.0409 166.652 72.5721 165.663 73.4287 163.963 74.9228 163.272 76.968 164.043 78.2496L174.016 95.614C174.262 96.039 174.733 96.2781 175.338 96.2781 175.683 96.2714 175.929 96.4441 175.975 96.7429 176.022 97.0351 175.869 97.4003 175.57 97.6991 175.271 97.9913 174.873 98.1705 174.541 98.1639L142.535 98.1639C138.006 98.2038 132.806 101.876 130.881 106.385 128.955 110.893 131.034 114.566 135.529 114.605L164.481 114.605C166.088 114.619 167.011 115.728 166.725 117.301 166.327 119.659 168.279 120.748 170.417 120.668 173.12 120.535 176.128 118.344 177.23 115.694 177.695 114.559 177.742 113.457 177.363 112.6 176.765 111.338 177.164 109.559 178.406 107.958L183.041 102.128C184.82 99.8904 185.338 97.3803 184.369 95.6937L171.347 73.0236ZM171.971 107.321 143.404 107.321C143.059 107.328 142.813 107.155 142.767 106.856 142.72 106.564 142.873 106.199 143.172 105.9 143.471 105.608 143.869 105.428 144.201 105.435L172.768 105.435C173.273 105.448 173.498 105.867 173.286 106.378 173.073 106.889 172.482 107.308 171.971 107.321ZM215.864 120.09C215.007 122.102 212.683 123.729 210.671 123.729L194.555 123.729 200.724 134.48C201.474 135.834 200.724 137.946 198.951 139.473 197.961 140.27 196.799 140.748 195.75 140.801 194.701 140.855 193.864 140.469 193.446 139.739L180.424 117.062C179.455 115.376 179.973 112.866 181.752 110.628L186.474 104.685C187.675 103.131 188.047 101.404 187.443 100.196 187.045 99.3326 187.084 98.217 187.556 97.0616 188.658 94.4121 191.666 92.2142 194.362 92.088 196.487 92.0083 198.433 93.0841 198.061 95.4148 197.769 96.9952 198.685 98.1174 200.299 98.1506L216.647 98.1506C217.61 98.1506 218.374 98.5358 218.765 99.2197 219.157 99.9037 219.144 100.827 218.739 101.796 218.334 102.766 217.55 103.689 216.574 104.373 215.598 105.057 214.509 105.442 213.546 105.442L192.802 105.442C192.284 105.455 191.706 105.873 191.487 106.385 191.268 106.896 191.5 107.314 192.005 107.328L203.015 107.328C205.027 107.328 205.963 108.961 205.106 110.966 204.25 112.972 201.926 114.612 199.914 114.612L190.239 114.612C189.721 114.612 189.116 115.03 188.897 115.555 188.711 116 188.871 116.385 189.276 116.465L213.759 116.465C215.771 116.465 216.707 118.098 215.85 120.104ZM270.387 100.614C271.264 102.188 271.204 104.319 270.221 106.531 268.103 111.079 262.817 114.652 258.289 114.599L238.613 114.599C236.601 114.599 235.665 112.965 236.522 110.953 237.378 108.941 239.702 107.314 241.714 107.314L256.894 107.314C257.233 107.321 257.625 107.148 257.923 106.849 258.222 106.557 258.375 106.192 258.329 105.893 258.282 105.601 258.036 105.422 257.691 105.428L233.109 105.428C232.591 105.442 232.013 105.86 231.794 106.371 231.575 106.883 231.807 107.301 232.312 107.314L233.268 107.314C235.28 107.314 236.216 108.948 235.36 110.953 234.503 112.959 232.179 114.599 230.167 114.599L223.739 114.599C221.714 114.599 220.24 113.603 219.801 111.936 219.363 110.269 220.007 108.144 221.534 106.245L222.79 104.685C223.991 103.131 224.363 101.404 223.759 100.196 223.361 99.3326 223.4 98.217 223.872 97.0616 224.974 94.4121 227.982 92.2142 230.685 92.088 232.816 92.0083 234.755 93.0841 234.384 95.4148 234.091 96.9952 235.008 98.1174 236.621 98.1506L265.573 98.1506C267.778 98.1506 269.517 99.0404 270.394 100.614ZM329.659 98.1573 297.646 98.1573C297.141 98.144 296.915 97.7256 297.128 97.2143 297.34 96.703 297.931 96.2847 298.443 96.2714 299.047 96.2714 299.724 96.0324 300.329 95.6074L325.09 78.2429C326.95 76.9614 328.005 74.9161 327.58 73.4221 327.315 72.5721 326.571 72.0342 325.549 71.9546 324.526 71.8749 323.324 72.26 322.255 73.0104L289.93 95.6871C287.526 97.3737 285.906 99.8838 285.78 102.122L285.448 107.952C285.328 109.552 284.213 111.332 282.539 112.593 281.424 113.457 280.54 114.552 280.036 115.688 278.88 118.337 280.016 120.535 282.606 120.661 284.677 120.741 287.553 119.652 289.166 117.295 290.215 115.728 292.081 114.619 293.702 114.599L322.653 114.599C327.182 114.559 332.381 110.887 334.307 106.378 336.233 101.869 334.154 98.1971 329.659 98.1506ZM320.987 107.321 292.42 107.321C292.075 107.328 291.829 107.155 291.782 106.856 291.736 106.564 291.889 106.199 292.188 105.9 292.486 105.608 292.885 105.428 293.217 105.435L321.783 105.435C322.288 105.448 322.514 105.867 322.301 106.378 322.089 106.889 321.498 107.308 320.987 107.321ZM378.512 98.1506 347.362 98.1506C343.823 98.1373 339.712 100.315 337.03 103.622 336.366 104.452 335.828 105.329 335.429 106.219 334.453 108.423 334.4 110.548 335.277 112.129 336.153 113.702 337.886 114.592 340.084 114.599L371.234 114.599C374.773 114.612 378.884 112.434 381.566 109.127 382.23 108.297 382.768 107.421 383.167 106.531 383.605 105.535 383.864 104.545 383.924 103.609 384.149 100.335 381.985 98.1573 378.512 98.1506ZM369.84 107.314 347.96 107.314C347.455 107.301 347.229 106.883 347.442 106.371 347.654 105.86 348.245 105.442 348.756 105.428L370.636 105.428C371.141 105.442 371.367 105.86 371.154 106.371 370.942 106.883 370.351 107.301 369.84 107.314ZM424.735 73.017C424.303 72.2666 423.427 71.8815 422.338 71.9612 421.249 72.0409 420.047 72.5721 419.058 73.4287 417.358 74.9228 416.667 76.968 417.437 78.2496L427.411 95.614C427.657 96.039 428.128 96.2781 428.733 96.2781 429.078 96.2714 429.323 96.4441 429.37 96.7429 429.416 97.0351 429.264 97.4003 428.965 97.6991 428.666 97.9913 428.274 98.1705 427.936 98.1639L395.929 98.1639C391.401 98.2038 386.201 101.876 384.276 106.385 382.35 110.893 384.428 114.566 388.924 114.605L417.876 114.605C419.483 114.619 420.406 115.728 420.12 117.301 419.722 119.659 421.674 120.748 423.812 120.668 426.515 120.535 429.516 118.344 430.625 115.694 431.09 114.559 431.136 113.457 430.758 112.6 430.16 111.338 430.559 109.559 431.8 107.958L436.435 102.128C438.215 99.8904 438.733 97.3803 437.763 95.6937L424.742 73.0236ZM425.359 107.321 396.793 107.321C396.447 107.328 396.202 107.155 396.155 106.856 396.109 106.564 396.261 106.199 396.56 105.9 396.859 105.608 397.257 105.428 397.589 105.435L426.156 105.435C426.661 105.448 426.887 105.867 426.674 106.378 426.462 106.889 425.871 107.308 425.359 107.321ZM462.346 110.96C461.489 112.972 459.165 114.605 457.153 114.605L440.871 114.605C436.376 114.566 434.297 110.893 436.223 106.385 438.142 101.869 443.341 98.2038 447.877 98.1573L459.564 98.1573C461.576 98.1573 462.512 99.7908 461.655 101.796 460.799 103.802 458.475 105.435 456.462 105.435L449.41 105.435C449.072 105.428 448.68 105.601 448.381 105.9 448.082 106.192 447.93 106.557 447.976 106.856 448.023 107.148 448.268 107.328 448.614 107.321L460.267 107.321C462.279 107.321 463.216 108.954 462.359 110.96ZM451.569 91.8158C452.08 89.1331 454.882 86.4504 457.83 85.8195 460.779 85.1887 462.758 86.8488 462.253 89.5249 461.742 92.2075 458.939 94.8902 455.991 95.5211 453.043 96.1519 451.064 94.4918 451.569 91.8158ZM487.991 108.828C488.356 109.592 488.256 110.608 487.725 111.63 486.683 113.53 484.451 114.944 482.552 114.917L475.334 114.917C473.701 114.944 471.822 116.073 470.772 117.653 469.152 119.984 466.297 121.06 464.238 120.98 461.649 120.854 460.513 118.656 461.669 116.006 462.18 114.851 463.09 113.735 464.225 112.872 465.859 111.664 466.954 109.937 467.074 108.383L467.412 102.44C467.539 100.202 469.159 97.6924 471.563 96.0058L503.894 73.3291C504.93 72.6053 506.099 72.2202 507.102 72.2666 508.104 72.3198 508.861 72.7979 509.173 73.5947 509.645 75.122 508.596 77.2336 506.697 78.5882L478.761 98.1772C476.503 99.7576 475.016 102.141 474.989 104.213 474.962 106.285 476.41 107.633 478.648 107.633L485.806 107.633C486.835 107.633 487.632 108.065 487.997 108.828ZM534.805 117.069 502.473 139.746C501.437 140.469 500.275 140.855 499.266 140.808 498.263 140.755 497.506 140.277 497.194 139.48 496.723 137.953 497.772 135.841 499.671 134.486L524.386 117.149C525.011 116.73 525.701 116.491 526.319 116.485 526.837 116.458 527.414 116.033 527.62 115.522 527.826 115.01 527.587 114.605 527.076 114.605L495.069 114.605C490.527 114.605 488.416 110.927 490.348 106.385 492.28 101.843 497.533 98.1639 502.075 98.1639L508.131 98.1639C509.452 98.144 510.375 98.8346 510.555 99.9701 510.734 101.106 510.136 102.507 508.994 103.642 507.852 104.778 506.338 105.468 505.03 105.448L503.748 105.448C503.23 105.462 502.653 105.88 502.433 106.391 502.214 106.903 502.447 107.321 502.951 107.334L531.525 107.334C532.043 107.321 532.62 106.903 532.84 106.391 533.059 105.88 532.826 105.462 532.322 105.448L526.764 105.448C525.442 105.468 524.519 104.778 524.34 103.642 524.161 102.507 524.758 101.106 525.9 99.9701 527.043 98.8346 528.557 98.144 529.865 98.1639L531.027 98.1639C532.667 98.1373 534.539 97.0085 535.595 95.4281 537.216 93.0973 540.071 92.0216 542.129 92.1013 544.719 92.2341 545.855 94.4254 544.706 97.0749 544.195 98.2303 543.285 99.3459 542.149 100.209 540.516 101.418 539.42 103.144 539.301 104.698L538.962 110.641C538.836 112.879 537.216 115.389 534.812 117.076Z" fill="#FFFFFF" transform="matrix(1 0 0 1.00003 0.0973354 0)"/><path d="M35.0011 152.913C33.9653 144.972 42.9098 136.166 59.7164 127.162 18.7456 145.576-3.76506 163.339 0.517945 177.111 10.3523 208.745 157.781 207.351 329.818 173.996 391.022 162.13 447.08 147.82 493.482 132.88 446.529 146.406 385.657 158.797 318.656 167.549 165.669 187.536 38.6732 180.982 35.0011 152.913Z" transform="matrix(1 0 0 1.00003 0.0973354 0)"/><path d="M623.506 56.3299C613.672 24.6954 466.237 26.0766 294.206 59.4442 240.871 69.7898 222.464 73.7541 180.431 84.8169 179.714 85.0028 179.959 86.0785 180.69 85.9324 225.14 76.8153 246.735 73.5549 305.375 65.8919 458.362 45.9046 585.358 52.4586 589.03 80.5272 590.066 88.469 562.083 107.181 545.27 116.186 586.241 97.7655 627.789 70.1019 623.506 56.3299Z" transform="matrix(1 0 0 1.00003 0.0973354 0)"/><path d="M89.2459 173.498 72.4924 171.387C71.8749 171.307 71.4764 170.968 71.43 170.484L70.248 157.296C70.1351 156.068 67.9903 156.068 66.6157 157.296L51.8344 170.484C51.2899 170.968 50.5395 171.307 49.8423 171.387L30.9041 173.498C29.1377 173.698 27.6171 175.358 28.3276 176.314L35.9507 186.58C36.2296 186.958 36.1698 187.509 35.7781 188.041L25.2532 202.537C24.2704 203.885 25.4789 204.914 27.2917 204.276L46.7877 197.437C47.5115 197.184 48.2154 197.184 48.6736 197.437L61.1043 204.276C62.2597 204.914 64.5307 203.885 64.9424 202.537L69.3715 188.041C69.5375 187.503 70.0355 186.958 70.7062 186.58L88.9139 176.314C90.6072 175.358 90.8064 173.691 89.2459 173.498Z" stroke="#231F20" stroke-width="3.32016" stroke-miterlimit="10" fill="#FFFFFF" transform="matrix(1 0 0 1.00003 0.0973354 0)"/><path d="M110.661 190.75 101.145 189.548C100.793 189.502 100.568 189.309 100.541 189.037L99.8705 181.553C99.8107 180.856 98.5889 180.856 97.8053 181.553L89.412 189.037C89.0999 189.316 88.6815 189.508 88.2831 189.548L77.5324 190.75C76.5297 190.863 75.6665 191.806 76.0715 192.35L80.3944 198.174C80.5538 198.386 80.5206 198.698 80.2948 199.004L74.3185 207.231C73.7607 207.995 74.4447 208.579 75.4806 208.221L86.5433 204.336C86.955 204.19 87.3535 204.19 87.6124 204.336L94.6711 208.221C95.3285 208.579 96.6167 207.995 96.8491 207.231L99.3592 199.004C99.4521 198.698 99.7377 198.386 100.116 198.174L110.455 192.35C111.418 191.806 111.531 190.863 110.641 190.75Z" stroke="#231F20" stroke-width="3.32016" stroke-miterlimit="10" fill="#FFFFFF" transform="matrix(1 0 0 1.00003 0.0973354 0)"/><path d="M394.462 59.1719C392.888 59.1719 391.434 58.4083 390.577 57.1267 389.707 55.8318 389.561 54.1651 390.179 52.6711L397.762 34.5164 380.305 34.5164C378.704 34.5031 377.263 33.7328 376.413 32.4513 375.557 31.1498 375.417 29.483 376.042 27.989 376.865 26.0101 378.83 24.6754 380.935 24.6622L399.993 24.6622C400.737 24.6622 402.277 23.706 402.769 22.524L410.784 3.3268C411.627 1.33471 413.606 0.00664032 415.711 0.00664032 417.285 0.00664032 418.739 0.770278 419.595 2.04522 420.465 3.34008 420.618 5.00016 420 6.50088L412.417 24.6622 429.875 24.6622C431.475 24.6754 432.916 25.4457 433.766 26.7273 434.622 28.0288 434.769 29.6955 434.144 31.1896 433.314 33.1751 431.349 34.5098 429.244 34.523L410.186 34.523C409.442 34.523 407.902 35.4793 407.41 36.6612L399.396 55.8584C398.546 57.8571 396.567 59.1786 394.468 59.1786Z" transform="matrix(1 0 0 1.00003 0.0973354 0)"/><path d="M429.868 28.8057 429.868 28.8057C429.868 28.8057 410.83 28.8057 410.83 28.8057L410.83 28.8057C408.267 28.8057 407.059 26.7074 408.141 24.1177L408.141 24.1177 416.156 4.92048 416.156 4.92048C416.335 4.4955 416.129 4.14356 415.704 4.14356 415.279 4.14356 414.788 4.48886 414.602 4.92048L414.602 4.92048 406.587 24.1177 406.587 24.1177C405.505 26.7074 402.55 28.8057 399.987 28.8057L399.987 28.8057C399.987 28.8057 380.949 28.8057 380.949 28.8057L380.949 28.8057C380.524 28.8057 380.032 29.1577 379.853 29.5893 379.674 30.0209 379.873 30.3728 380.291 30.3728L380.291 30.3728C380.291 30.3728 399.329 30.3728 399.329 30.3728L399.329 30.3728C401.892 30.3728 403.101 32.4712 402.018 35.0609L402.018 35.0609 394.004 54.2581 394.004 54.2581C393.824 54.6831 394.03 55.035 394.455 55.035 394.88 55.035 395.372 54.6897 395.557 54.2581L395.557 54.2581 403.572 35.0609 403.572 35.0609C404.655 32.4712 407.61 30.3728 410.173 30.3728L410.173 30.3728C410.173 30.3728 429.211 30.3728 429.211 30.3728L429.211 30.3728C429.636 30.3728 430.127 30.0209 430.306 29.5893 430.486 29.1577 430.286 28.8057 429.868 28.8057Z" fill="#FFFFFF" transform="matrix(1 0 0 1.00003 0.0973354 0)"/><path d="M441.316 89.9432C439.682 89.9432 438.182 89.153 437.299 87.8382 436.402 86.4969 436.249 84.7704 436.887 83.2099L447.379 58.0896C447.438 57.9435 447.485 57.8173 447.511 57.7044L422.803 57.7044C421.143 57.6911 419.655 56.8943 418.779 55.5729 417.889 54.2315 417.749 52.4984 418.394 50.9379 419.27 48.8462 421.422 47.3787 423.626 47.3588L448.541 47.3588C450.041 47.3588 452.518 45.7585 453.348 43.7797L463.827 18.6859C464.723 16.5809 466.881 15.1267 469.092 15.1267 470.726 15.1267 472.227 15.9169 473.11 17.2316 474.006 18.573 474.159 20.2995 473.515 21.8599L463.03 46.9737C462.97 47.1197 462.924 47.2459 462.897 47.3588L487.606 47.3588C489.266 47.3721 490.753 48.1689 491.63 49.4903 492.52 50.8317 492.659 52.5648 492.008 54.1253 491.132 56.217 488.987 57.6845 486.776 57.6978L461.861 57.6978C460.36 57.6978 457.884 59.2981 457.053 61.2769L446.575 86.3707C445.679 88.4757 443.521 89.9299 441.309 89.9299Z" transform="matrix(1 0 0 1.00003 0.0973354 0)"/><path d="M487.606 51.5156 487.606 51.5156C487.606 51.5156 462.724 51.5156 462.724 51.5156L462.724 51.5156C459.371 51.5156 457.797 48.7732 459.212 45.3933L459.212 45.3933 469.69 20.2995 469.69 20.2995C469.922 19.7417 469.657 19.2901 469.099 19.2901 468.541 19.2901 467.897 19.7417 467.658 20.2995L467.658 20.2995 457.18 45.3933 457.18 45.3933C455.765 48.7732 451.901 51.5156 448.547 51.5156L448.547 51.5156C448.547 51.5156 423.666 51.5156 423.666 51.5156L423.666 51.5156C423.108 51.5156 422.471 51.9738 422.238 52.5382 422.006 53.1027 422.258 53.5609 422.816 53.5609L422.816 53.5609C422.816 53.5609 447.697 53.5609 447.697 53.5609L447.697 53.5609C451.051 53.5609 452.624 56.3033 451.21 59.6899L451.21 59.6899 440.732 84.7837 440.732 84.7837C440.499 85.3414 440.765 85.793 441.323 85.793 441.88 85.793 442.524 85.3414 442.764 84.7837L442.764 84.7837 453.242 59.6899 453.242 59.6899C454.656 56.3099 458.521 53.5675 461.874 53.5675L461.874 53.5675C461.874 53.5675 486.756 53.5675 486.756 53.5675L486.756 53.5675C487.313 53.5675 487.951 53.1093 488.183 52.5449 488.416 51.9805 488.163 51.5223 487.606 51.5223Z" fill="#FFFFFF" transform="matrix(1 0 0 1.00003 0.0973354 0)"/><path d="M503.396 56.7416C501.869 56.7416 500.455 55.9979 499.618 54.7495 498.775 53.4878 498.622 51.8742 499.213 50.4333L504.412 37.976 492.612 37.976C491.059 37.9627 489.651 37.2124 488.827 35.9574 487.991 34.6957 487.851 33.0755 488.449 31.6345 489.233 29.7619 491.092 28.5003 493.084 28.487L507.6 28.487C507.885 28.4471 508.602 27.9358 508.802 27.471L514.904 12.8623C515.707 10.9765 517.58 9.72807 519.565 9.72807 521.099 9.72807 522.507 10.4718 523.344 11.7268 524.187 12.9885 524.333 14.6021 523.742 16.0497L518.543 28.5003 530.343 28.5003C531.903 28.5135 533.304 29.2705 534.134 30.5189 534.971 31.7872 535.11 33.4008 534.5 34.8484 533.723 36.7077 531.863 37.976 529.871 37.9893L515.356 37.9893C515.07 38.0291 514.353 38.5404 514.154 39.0053L508.051 53.6206C507.248 55.5065 505.382 56.7548 503.39 56.7548Z" transform="matrix(1 0 0 1.00003 0.0973354 0)"/><path d="M530.343 32.6372 530.343 32.6372C530.343 32.6372 515.854 32.6372 515.854 32.6372L515.854 32.6372C513.901 32.6372 512.985 31.0435 513.808 29.0713L513.808 29.0713 519.911 14.4626 519.911 14.4626C520.044 14.1372 519.891 13.8716 519.565 13.8716 519.24 13.8716 518.868 14.1372 518.729 14.4626L518.729 14.4626 512.626 29.0713 512.626 29.0713C511.803 31.0435 509.552 32.6372 507.6 32.6372L507.6 32.6372C507.6 32.6372 493.11 32.6372 493.11 32.6372L493.11 32.6372C492.785 32.6372 492.413 32.9028 492.28 33.2348 492.148 33.5668 492.294 33.8258 492.612 33.8325L492.612 33.8325C492.612 33.8325 507.102 33.8325 507.102 33.8325L507.102 33.8325C509.054 33.8325 509.97 35.4261 509.147 37.3983L509.147 37.3983 503.044 52.007 503.044 52.007C502.912 52.3324 503.064 52.598 503.39 52.598 503.715 52.598 504.087 52.3324 504.226 52.007L504.226 52.007 510.329 37.3983 510.329 37.3983C511.152 35.4261 513.403 33.8325 515.356 33.8325L515.356 33.8325C515.356 33.8325 529.845 33.8325 529.845 33.8325L529.845 33.8325C530.17 33.8325 530.542 33.5668 530.675 33.2348 530.808 32.9028 530.661 32.6438 530.343 32.6372Z" fill="#FFFFFF" transform="matrix(1 0 0 1.00003 0.0973354 0)"/><path d="M561.38 111.279C561.227 111.033 561.061 110.8 560.882 110.581 560.835 110.502 560.802 110.415 560.749 110.329 560.596 110.083 560.43 109.851 560.251 109.625 560.204 109.545 560.171 109.459 560.118 109.379 559.965 109.134 559.799 108.901 559.62 108.676 559.573 108.596 559.54 108.51 559.487 108.43 559.334 108.184 559.168 107.952 558.989 107.726 558.943 107.646 558.909 107.56 558.856 107.48 558.704 107.235 558.538 107.002 558.358 106.776 558.312 106.697 558.279 106.61 558.225 106.531 558.073 106.285 557.907 106.053 557.727 105.827 557.681 105.747 557.648 105.661 557.595 105.581 557.442 105.335 557.276 105.103 557.097 104.877 557.05 104.798 557.017 104.711 556.964 104.632 556.811 104.386 556.645 104.153 556.466 103.928 556.419 103.848 556.386 103.762 556.333 103.682 556.18 103.436 556.014 103.204 555.835 102.978 555.788 102.898 555.755 102.812 555.702 102.732 555.549 102.487 555.383 102.254 555.204 102.029 555.158 101.949 555.124 101.863 555.071 101.783 554.919 101.537 554.753 101.305 554.573 101.079 554.527 100.999 554.494 100.913 554.44 100.833 554.288 100.588 554.122 100.355 553.943 100.129 553.896 100.05 553.863 99.9634 553.81 99.8838 553.657 99.6381 553.491 99.4056 553.312 99.1799 553.265 99.1002 553.232 99.0139 553.179 98.9342 553.026 98.6885 552.86 98.4561 552.681 98.2303 552.634 98.1506 552.601 98.0643 552.548 97.9846 552.395 97.7389 552.229 97.5065 552.05 97.2807 552.003 97.2011 551.97 97.1147 551.917 97.0351 551.764 96.7894 551.598 96.557 551.419 96.3312 551.373 96.2515 551.339 96.1652 551.286 96.0855 551.134 95.8398 550.968 95.6074 550.788 95.3816 550.742 95.3019 550.709 95.2156 550.656 95.1359 550.503 94.8902 550.337 94.6578 550.157 94.4321 550.111 94.3524 550.078 94.266 550.025 94.1864 549.872 93.9407 549.706 93.7083 549.527 93.4825 549.48 93.4028 549.447 93.3165 549.394 93.2368 549.241 92.9911 549.075 92.7587 548.896 92.5329 548.849 92.4532 548.816 92.3669 548.763 92.2872 548.61 92.0415 548.444 91.8091 548.265 91.5834 548.219 91.5037 548.185 91.4173 548.132 91.3377 546.93 89.4053 544.825 88.2233 542.315 88.0972 542.189 88.0972 542.07 88.0905 541.937 88.0905 538.238 88.0905 534.473 90.0694 532.348 93.1372L532.302 93.2036C531.923 93.7747 531.233 94.1332 530.987 94.1598L529.838 94.1598C528.749 94.1598 527.627 94.4055 526.544 94.8504 526.611 93.9938 526.525 93.1372 526.272 92.3204L526.226 92.1743 526.166 92.0283C525.934 91.4439 525.615 90.9127 525.223 90.4412 525.037 90.1026 524.831 89.7838 524.592 89.4916 524.406 89.153 524.2 88.8343 523.961 88.5421 523.776 88.2034 523.57 87.8847 523.331 87.5925 523.145 87.2539 522.939 86.9351 522.7 86.6429 522.514 86.3043 522.308 85.9856 522.069 85.6934 521.883 85.3547 521.677 85.036 521.438 84.7438 521.252 84.4052 521.046 84.0864 520.807 83.7943 520.621 83.4556 520.415 83.1369 520.176 82.8447 519.99 82.506 519.785 82.1873 519.546 81.8951 519.36 81.5565 519.154 81.2377 518.915 80.9455 518.729 80.6069 518.523 80.2882 518.284 79.996 518.098 79.6573 517.892 79.3386 517.653 79.0464 517.467 78.7078 517.261 78.389 517.022 78.0968 516.836 77.7582 516.63 77.4395 516.391 77.1473 516.206 76.8086 516 76.4899 515.761 76.1977 515.575 75.8591 515.369 75.5403 515.13 75.2482 514.944 74.9095 514.738 74.5908 514.499 74.2986 514.313 73.9599 514.107 73.6412 513.868 73.349 513.682 73.0104 513.476 72.6916 513.237 72.3995 513.051 72.0608 512.846 71.7421 512.606 71.4499 511.59 69.5773 509.638 68.3621 507.341 68.2493 507.215 68.2493 507.088 68.2426 506.962 68.2426 505.183 68.2426 503.29 68.8801 501.643 70.0289L470.115 92.1411C470.049 92.0482 469.982 91.9486 469.909 91.8556 469.723 91.5236 469.517 91.2049 469.278 90.906 469.092 90.574 468.887 90.2553 468.648 89.9565 468.462 89.6245 468.256 89.3057 468.017 89.0069 467.831 88.6749 467.625 88.3561 467.386 88.0573 467.2 87.7253 466.994 87.4066 466.755 87.1078 466.569 86.7757 466.363 86.457 466.124 86.1582 465.938 85.8262 465.732 85.5075 465.493 85.2086 465.294 84.8501 465.075 84.5048 464.809 84.186 463.455 82.5525 461.429 81.6494 459.099 81.6494 458.435 81.6494 457.744 81.7225 457.053 81.8752 452.531 82.8447 448.521 86.7757 447.711 91.0256 447.505 92.1013 447.511 93.1505 447.717 94.1332 446.402 94.1664 445.068 94.4055 443.76 94.8105L441.522 90.9127C441.369 90.6471 441.19 90.3947 441.004 90.1623L440.891 89.9631C440.738 89.6975 440.559 89.4452 440.373 89.2128L440.26 89.0135C440.107 88.7479 439.928 88.4956 439.742 88.2632L439.629 88.064C439.477 87.7984 439.297 87.546 439.111 87.3136L438.998 87.1144C438.846 86.8488 438.666 86.5965 438.481 86.3641L438.368 86.1648C438.215 85.8992 438.036 85.6469 437.85 85.4145L437.737 85.2153C437.584 84.9497 437.405 84.6973 437.219 84.4649L437.106 84.2657C436.953 84.0001 436.774 83.7478 436.588 83.5154L436.475 83.3161C436.322 83.0505 436.143 82.7982 435.957 82.5658L435.844 82.3666C435.692 82.101 435.512 81.8486 435.326 81.6162L435.213 81.417C435.061 81.1514 434.881 80.8991 434.696 80.6667L434.583 80.4674C434.43 80.2018 434.251 79.9495 434.065 79.7171L433.952 79.5179C433.799 79.2523 433.62 78.9999 433.434 78.7675L433.321 78.5683C433.168 78.3027 432.989 78.0504 432.803 77.818L432.69 77.6187C432.537 77.3531 432.358 77.1008 432.172 76.8684L432.059 76.6692C431.907 76.4036 431.727 76.1512 431.541 75.9188L431.428 75.7196C431.276 75.454 431.096 75.2017 430.911 74.9693L430.798 74.7701C430.645 74.5044 430.466 74.2521 430.28 74.0197L430.167 73.8205C430.014 73.5549 429.835 73.3025 429.649 73.0701L429.536 72.8709C429.383 72.6053 429.204 72.353 429.018 72.1206L428.905 71.9213C428.752 71.6557 428.573 71.4034 428.387 71.171L428.274 70.9718C427.172 69.0527 425.087 67.904 422.696 67.904 422.511 67.904 422.325 67.904 422.132 67.9239 420.18 68.0633 418.194 68.9199 416.508 70.3675 413.307 73.1764 412.318 77.207 414.077 80.1952L422.066 94.1067 395.963 94.1067C392.629 94.1399 389.169 95.4945 386.294 97.6924 386.108 97.4401 385.909 97.2011 385.69 96.9687 383.97 95.1226 381.447 94.1 378.591 94.1L347.408 94.1C346.618 94.1 345.808 94.1797 344.998 94.3324 345.038 93.602 344.971 92.8716 344.772 92.1743L344.746 92.0814C344.513 91.3443 344.141 90.6869 343.677 90.1092 343.497 89.7705 343.285 89.4518 343.046 89.1596 342.867 88.821 342.654 88.5022 342.415 88.2101 342.236 87.8714 342.023 87.5527 341.784 87.2605 341.605 86.9218 341.392 86.6031 341.153 86.3109 340.974 85.9723 340.762 85.6535 340.522 85.3614 340.343 85.0227 340.131 84.704 339.892 84.4118 339.712 84.0731 339.5 83.761 339.261 83.4622 339.082 83.1236 338.869 82.8048 338.63 82.5127 338.451 82.174 338.238 81.8553 337.999 81.5631 337.82 81.2244 337.607 80.9057 337.368 80.6135 337.189 80.2749 336.977 79.9561 336.737 79.664 336.558 79.3253 336.346 79.0066 336.107 78.7144 335.927 78.3757 335.715 78.057 335.476 77.7648 335.297 77.4262 335.084 77.1074 334.845 76.8153 334.666 76.4766 334.453 76.1579 334.214 75.8657 334.035 75.527 333.822 75.2083 333.583 74.9161 333.404 74.5775 333.192 74.2587 332.952 73.9666 332.773 73.6279 332.561 73.3092 332.322 73.017 332.142 72.6783 331.93 72.3596 331.691 72.0674 331.512 71.7288 331.299 71.41 331.06 71.1179 330.084 69.2719 328.225 68.0633 325.967 67.8907 325.781 67.8774 325.588 67.8708 325.396 67.8708 323.61 67.8708 321.724 68.5082 320.077 69.657L287.752 92.3337C284.345 94.7242 282.108 98.3565 281.908 101.809L281.583 107.58C281.563 107.753 281.351 108.257 280.813 108.815 280.633 108.516 280.441 108.224 280.235 107.952 280.042 107.62 279.83 107.301 279.604 107.002 279.412 106.67 279.199 106.351 278.973 106.053 278.781 105.721 278.568 105.402 278.342 105.103 278.15 104.771 277.937 104.452 277.712 104.153 277.519 103.821 277.307 103.503 277.081 103.204 276.888 102.872 276.676 102.553 276.45 102.254 276.257 101.922 276.045 101.604 275.819 101.305 275.627 100.973 275.414 100.654 275.188 100.355 274.996 100.023 274.783 99.7045 274.557 99.4056 274.365 99.0736 274.152 98.7549 273.927 98.4561 272.313 95.6605 269.325 94.0602 265.693 94.0602L239.404 94.0602C239.277 93.861 239.131 93.6684 238.985 93.4825 238.806 93.1505 238.593 92.8317 238.354 92.5329 238.175 92.2009 237.963 91.8822 237.724 91.5834 237.518 91.2049 237.285 90.8463 237 90.5143 235.632 88.9139 233.454 87.9976 231.024 87.9976 230.897 87.9976 230.778 87.9976 230.612 88.0042 226.468 88.2034 222.258 91.1584 220.452 95.1094 219.41 94.4321 218.148 94.0602 216.787 94.0602L203.101 94.0602C202.975 93.861 202.829 93.6684 202.683 93.4825 202.503 93.1505 202.291 92.8317 202.052 92.5329 201.872 92.2009 201.66 91.8822 201.421 91.5834 201.215 91.2049 200.983 90.8463 200.697 90.5143 199.329 88.9139 197.151 87.9976 194.728 87.9976 194.601 87.9976 194.482 87.9976 194.316 88.0042 192.085 88.1105 189.84 89.0268 187.954 90.4611 187.868 90.335 187.788 90.2088 187.695 90.0959L187.583 89.8967C187.43 89.6311 187.25 89.3854 187.065 89.1463L186.952 88.9471C186.799 88.6815 186.62 88.4358 186.434 88.1968L186.321 87.9976C186.168 87.732 185.989 87.4863 185.803 87.2472L185.69 87.048C185.537 86.7824 185.358 86.5367 185.172 86.2977L185.059 86.0984C184.906 85.8328 184.727 85.5871 184.541 85.3481L184.428 85.1489C184.276 84.8833 184.096 84.6376 183.91 84.3985L183.798 84.1993C183.645 83.9337 183.466 83.688 183.28 83.449L183.167 83.2497C183.014 82.9841 182.835 82.7384 182.649 82.4994L182.536 82.3002C182.383 82.0346 182.204 81.7889 182.018 81.5498L181.905 81.3506C181.752 81.085 181.573 80.8393 181.387 80.6003L181.274 80.401C181.121 80.1354 180.942 79.8897 180.756 79.6507L180.643 79.4515C180.491 79.1859 180.311 78.9402 180.125 78.7011L180.013 78.5019C179.86 78.2363 179.681 77.9906 179.495 77.7515L179.382 77.5523C179.229 77.2867 179.05 77.041 178.864 76.802L178.751 76.6028C178.598 76.3372 178.419 76.0915 178.233 75.8524L178.12 75.6532C177.967 75.3876 177.788 75.1419 177.602 74.9029L177.489 74.7036C177.336 74.438 177.157 74.1923 176.971 73.9533L176.858 73.7541C176.706 73.4885 176.526 73.2428 176.34 73.0037L176.228 72.8045C176.075 72.5389 175.896 72.2932 175.71 72.0542L175.597 71.8549C175.444 71.5893 175.265 71.3436 175.079 71.1046L174.966 70.9054C173.864 68.9863 171.779 67.8376 169.388 67.8376 169.202 67.8376 169.016 67.8376 168.83 67.8575 166.878 67.9969 164.893 68.8535 163.206 70.3011 160.005 73.11 159.016 77.1406 160.776 80.1288L168.764 94.0403 142.661 94.0403C141.147 94.0536 139.606 94.3457 138.105 94.8637 138.039 94.7773 137.979 94.6844 137.913 94.6047 137.727 94.2727 137.521 93.9539 137.282 93.6551 137.096 93.3231 136.89 93.0044 136.651 92.7056 136.465 92.3736 136.259 92.0548 136.02 91.756 135.834 91.424 135.629 91.1052 135.39 90.8064 135.204 90.4744 134.998 90.1557 134.759 89.8569 134.573 89.5249 134.367 89.2061 134.128 88.9073 133.942 88.5753 133.736 88.2565 133.497 87.9577 133.311 87.6257 133.105 87.307 132.866 87.0082 132.68 86.6761 132.474 86.3574 132.235 86.0586 132.049 85.7266 131.844 85.4078 131.605 85.109 131.405 84.7505 131.186 84.4118 130.921 84.0931 129.566 82.4595 127.541 81.5565 125.21 81.5565 124.546 81.5565 123.855 81.6295 123.165 81.7822 118.649 82.7517 114.632 86.6828 113.828 90.9326 113.623 92.0083 113.629 93.0575 113.835 94.0403 112.341 94.0735 110.834 94.3723 109.359 94.8902L109.359 94.8902C109.207 94.618 109.027 94.3656 108.842 94.1332L108.729 93.934C108.576 93.6684 108.397 93.4227 108.211 93.1837L108.098 92.9845C107.945 92.7188 107.766 92.4665 107.58 92.2341L107.467 92.0349C107.314 91.7693 107.135 91.5236 106.949 91.2845L106.836 91.0853C106.683 90.8197 106.504 90.574 106.318 90.335L106.205 90.1358C106.053 89.8701 105.873 89.6245 105.687 89.3854L105.575 89.1862C105.422 88.9206 105.243 88.6749 105.057 88.4358L104.944 88.2366C104.791 87.971 104.612 87.7253 104.426 87.4863L104.313 87.2871C104.16 87.0214 103.981 86.7757 103.795 86.5367L103.682 86.3375C103.529 86.0719 103.35 85.8195 103.164 85.5871L103.051 85.3879C102.898 85.1223 102.719 84.8766 102.533 84.6376L102.42 84.4384C102.268 84.1727 102.088 83.9271 101.902 83.688L101.79 83.4888C101.637 83.2232 101.458 82.9775 101.272 82.7384L101.159 82.5392C101.006 82.2736 100.827 82.0213 100.641 81.7889L100.528 81.5897C99.4256 79.6706 97.3405 78.5218 94.95 78.5218 94.7641 78.5218 94.5781 78.5218 94.3856 78.5417 92.4333 78.6812 90.4479 79.5378 88.7612 80.9854 85.5672 83.7943 84.5712 87.8249 86.3308 90.8064L88.1769 94.0203 62.0405 94.0203C58.0497 94.0203 53.6937 95.9792 50.3801 99.2662 46.8674 102.752 45.1343 107.128 45.7319 110.973 45.9643 112.474 46.5487 113.802 47.392 114.911 47.5779 115.243 47.7971 115.555 48.0228 115.86 48.2088 116.192 48.4279 116.504 48.6537 116.81 48.8396 117.142 49.0587 117.454 49.2845 117.76 49.4704 118.092 49.6895 118.404 49.9153 118.709 50.1012 119.041 50.3204 119.353 50.5461 119.659 50.7321 119.991 50.9512 120.303 51.177 120.608 51.3629 120.94 51.582 121.252 51.8078 121.558 51.9937 121.89 52.2129 122.202 52.4386 122.507 52.6246 122.839 52.8437 123.151 53.0695 123.457 53.2554 123.789 53.4745 124.101 53.7003 124.406 53.8862 124.738 54.1054 125.051 54.3311 125.356 54.5171 125.688 54.7362 126 54.962 126.306 55.1479 126.638 55.367 126.95 55.5928 127.255 55.7787 127.587 55.9979 127.899 56.2236 128.205 56.4095 128.537 56.6287 128.849 56.8545 129.154 57.0404 129.486 57.2595 129.798 57.4853 130.104 57.6712 130.436 57.8903 130.748 58.1161 131.053 58.302 131.385 58.5212 131.698 58.7469 132.003 58.9329 132.335 59.152 132.647 59.3778 132.953 59.5637 133.285 59.7828 133.597 60.0086 133.902 61.5691 136.665 64.6037 138.378 68.2825 138.378L94.6445 138.378C94.7707 138.577 94.9168 138.776 95.0695 138.962 95.2554 139.294 95.4613 139.613 95.7003 139.912 95.8863 140.244 96.0921 140.562 96.3312 140.861 96.5304 141.226 96.7562 141.578 97.0284 141.904 98.3963 143.517 100.581 144.447 103.018 144.447 103.144 144.447 103.264 144.447 103.43 144.44 107.693 144.234 112.022 141.114 113.735 136.99 113.842 136.731 113.935 136.472 114.014 136.213 115.655 137.588 117.846 138.358 120.309 138.384L136.591 138.384C138.703 138.384 140.841 137.528 142.561 136.113 144.215 137.554 146.446 138.364 148.976 138.384L175.265 138.384C175.391 138.584 175.53 138.783 175.69 138.969 175.876 139.301 176.081 139.619 176.321 139.918 176.506 140.25 176.712 140.569 176.951 140.868 177.151 141.233 177.376 141.585 177.649 141.91 179.016 143.531 181.201 144.454 183.638 144.454 183.764 144.454 183.884 144.454 184.05 144.447 186.281 144.341 188.525 143.424 190.411 141.99 190.498 142.116 190.577 142.242 190.67 142.355L190.783 142.554C190.936 142.82 191.115 143.066 191.301 143.305L191.414 143.504C191.567 143.77 191.746 144.015 191.932 144.254L192.045 144.454C192.198 144.719 192.377 144.965 192.563 145.204L192.676 145.403C192.828 145.669 193.008 145.921 193.194 146.154L193.306 146.353C193.459 146.618 193.638 146.864 193.824 147.103L193.937 147.302C194.09 147.568 194.269 147.814 194.455 148.053L194.568 148.252C194.721 148.517 194.9 148.763 195.086 149.002L195.199 149.201C195.352 149.467 195.531 149.713 195.717 149.952L195.83 150.151C195.983 150.417 196.162 150.662 196.348 150.901L196.461 151.101C196.613 151.366 196.793 151.612 196.979 151.851L197.091 152.05C197.244 152.316 197.423 152.568 197.609 152.8L197.722 153C197.875 153.265 198.054 153.511 198.24 153.75L198.353 153.949C198.506 154.215 198.685 154.461 198.871 154.7L198.984 154.899C199.137 155.164 199.316 155.417 199.502 155.649L199.615 155.848C199.768 156.114 199.947 156.36 200.133 156.599L200.246 156.798C200.398 157.064 200.578 157.309 200.764 157.548L200.876 157.748C201.029 158.013 201.208 158.259 201.394 158.498L201.507 158.697C201.66 158.963 201.839 159.208 202.025 159.447L202.138 159.647C202.291 159.912 202.47 160.158 202.656 160.397L202.769 160.596C202.922 160.862 203.101 161.108 203.287 161.347L203.4 161.546C204.502 163.465 206.587 164.614 208.978 164.614 209.097 164.614 209.223 164.614 209.349 164.607 211.242 164.514 213.201 163.737 214.854 162.409L214.961 162.323C218.214 159.521 219.31 155.43 217.59 152.322L214.848 147.541 224.084 147.541C227.723 147.541 231.448 144.991 232.943 141.479 233.487 140.197 233.68 138.889 233.527 137.667 234.603 138.152 235.831 138.411 237.146 138.411L243.574 138.411C245.114 138.411 246.668 137.953 248.063 137.163 249.152 137.973 250.52 138.411 252.02 138.411L271.802 138.411C276.211 138.411 280.932 136.034 284.232 132.461 284.272 132.534 284.305 132.621 284.352 132.694 284.505 132.939 284.671 133.172 284.85 133.391 284.896 133.471 284.93 133.557 284.983 133.637 285.135 133.882 285.302 134.115 285.481 134.334 285.527 134.413 285.56 134.5 285.614 134.579 285.766 134.825 285.932 135.058 286.112 135.277 286.158 135.356 286.191 135.443 286.244 135.522 286.397 135.768 286.563 136 286.742 136.22 286.789 136.299 286.822 136.386 286.875 136.465 287.028 136.711 287.194 136.943 287.373 137.163 287.42 137.242 287.453 137.329 287.506 137.408 287.659 137.654 287.825 137.886 288.004 138.105 288.051 138.185 288.084 138.271 288.137 138.351 288.29 138.597 288.456 138.829 288.635 139.048 288.681 139.128 288.715 139.214 288.768 139.294 288.921 139.54 289.087 139.772 289.266 139.991 289.312 140.071 289.345 140.157 289.399 140.237 289.551 140.483 289.717 140.715 289.897 140.941 289.943 141.021 289.976 141.107 290.029 141.187 291.231 143.126 293.336 144.301 295.846 144.427 295.966 144.427 296.092 144.434 296.218 144.434 299.95 144.434 303.728 142.428 305.873 139.287 306.245 138.736 306.909 138.384 307.095 138.364L336.08 138.364C339.427 138.331 342.893 136.97 345.768 134.759 347.455 137.05 350.197 138.351 353.471 138.358L384.654 138.358C387.981 138.358 391.58 136.997 394.621 134.706 396.288 137.003 399.057 138.331 402.304 138.364L428.593 138.364C428.719 138.564 428.865 138.763 429.018 138.949 429.204 139.281 429.41 139.6 429.649 139.898 429.835 140.23 430.041 140.549 430.28 140.848 430.479 141.213 430.705 141.565 430.977 141.89 432.345 143.504 434.53 144.434 436.967 144.434 437.093 144.434 437.212 144.434 437.378 144.427 441.641 144.221 445.971 141.1 447.684 136.977 447.79 136.718 447.883 136.465 447.963 136.206 449.603 137.581 451.788 138.345 454.251 138.371 454.251 138.371 465.985 138.371 469.584 138.371 469.59 138.378 469.597 138.391 469.604 138.398 469.65 138.484 469.69 138.57 469.743 138.65 469.896 138.896 470.062 139.128 470.241 139.347 470.288 139.434 470.327 139.52 470.381 139.6 470.533 139.845 470.699 140.078 470.879 140.297 470.925 140.383 470.965 140.469 471.018 140.549 471.171 140.795 471.337 141.027 471.516 141.246 471.563 141.333 471.602 141.419 471.656 141.499 472.857 143.438 474.962 144.613 477.473 144.739 477.599 144.739 477.725 144.746 477.851 144.746 481.55 144.746 485.315 142.767 487.44 139.699L487.486 139.633C487.865 139.062 488.549 138.703 488.794 138.677L493.217 138.677C493.23 139.301 493.323 139.918 493.509 140.516L493.555 140.662 493.608 140.801C493.841 141.386 494.16 141.917 494.551 142.388 494.737 142.727 494.943 143.046 495.182 143.338 495.368 143.677 495.574 143.995 495.813 144.288 495.999 144.626 496.205 144.945 496.444 145.237 496.63 145.576 496.836 145.895 497.075 146.187 497.261 146.525 497.466 146.844 497.706 147.136 497.891 147.475 498.097 147.794 498.336 148.086 498.522 148.425 498.728 148.743 498.967 149.035 499.153 149.374 499.359 149.693 499.598 149.985 499.784 150.324 499.99 150.642 500.229 150.935 500.415 151.273 500.621 151.592 500.86 151.884 501.046 152.223 501.251 152.542 501.491 152.834 501.676 153.172 501.882 153.491 502.121 153.783 502.307 154.122 502.513 154.441 502.752 154.733 502.938 155.071 503.144 155.39 503.383 155.682 503.569 156.021 503.775 156.34 504.014 156.632 504.2 156.971 504.406 157.289 504.645 157.582 504.831 157.92 505.036 158.239 505.276 158.531 505.461 158.87 505.667 159.188 505.906 159.481 506.092 159.819 506.298 160.138 506.537 160.43 506.723 160.769 506.929 161.088 507.168 161.38 508.184 163.252 510.136 164.468 512.434 164.58 512.56 164.58 512.686 164.587 512.812 164.587 514.592 164.587 516.484 163.95 518.131 162.801L550.456 140.124C553.863 137.734 556.101 134.101 556.3 130.648L556.632 124.785C556.665 124.572 557.01 123.842 557.927 123.165 559.587 121.896 560.928 120.236 561.718 118.45 562.841 115.874 562.747 113.211 561.466 111.146ZM520.323 103.337 520.017 103.337 520.329 103.118C520.329 103.191 520.316 103.264 520.323 103.337Z" transform="matrix(1 0 0 1.00003 0.0973354 0)"/><path d="M96.8624 83.7212C96.4308 82.9708 95.5543 82.5857 94.4652 82.6654 93.3762 82.7451 92.1743 83.2763 91.1849 84.1329 89.485 85.627 88.7944 87.6722 89.5647 88.9538L93.3895 95.614C93.6352 96.039 94.1067 96.2781 94.7109 96.2781 95.2156 96.2913 95.4414 96.7097 95.2289 97.221 95.0164 97.7323 94.4254 98.1506 93.9141 98.1639L61.9077 98.1639C58.9661 98.1373 55.553 99.6978 52.9831 102.254 50.4067 104.811 49.0654 107.965 49.4638 110.522 49.8622 113.078 51.9406 114.639 54.9088 114.612L83.8606 114.612C85.4676 114.625 86.3906 115.734 86.1051 117.308 85.7067 119.665 87.6589 120.754 89.7971 120.675 92.4997 120.542 95.5011 118.35 96.6101 115.701 97.0749 114.566 97.1214 113.463 96.7429 112.607 96.1386 111.345 96.5437 109.565 97.7854 107.965L102.42 102.135C104.2 99.897 104.718 97.387 103.748 95.7003L96.8757 83.7345ZM92.3736 106.856C92.0747 107.148 91.6763 107.328 91.3443 107.321L62.771 107.321C62.2663 107.308 62.0405 106.889 62.253 106.378 62.4655 105.867 63.0565 105.448 63.5678 105.435L92.1411 105.435C92.4864 105.428 92.7321 105.601 92.7786 105.9 92.8251 106.192 92.6724 106.557 92.3736 106.856ZM117.56 91.8158C118.072 89.1331 120.874 86.4504 123.822 85.8195 126.77 85.1887 128.749 86.8488 128.245 89.5249 127.733 92.2075 124.931 94.8902 121.983 95.5211 119.034 96.1519 117.056 94.4918 117.56 91.8158ZM128.338 110.96C127.481 112.972 125.157 114.605 123.145 114.605L106.863 114.605C102.367 114.566 100.295 110.893 102.215 106.385 104.134 101.876 109.333 98.2038 113.868 98.1573L125.555 98.1573C127.567 98.1573 128.504 99.7908 127.647 101.796 126.79 103.802 124.466 105.435 122.454 105.435L115.402 105.435C115.064 105.428 114.672 105.601 114.373 105.9 114.074 106.192 113.921 106.557 113.968 106.856 114.014 107.148 114.26 107.328 114.605 107.321L126.259 107.321C128.271 107.321 129.207 108.954 128.351 110.96ZM171.34 73.017C170.909 72.2666 170.032 71.8815 168.943 71.9612 167.854 72.0409 166.652 72.5721 165.663 73.4287 163.963 74.9228 163.272 76.968 164.043 78.2496L174.016 95.614C174.262 96.039 174.733 96.2781 175.338 96.2781 175.683 96.2714 175.929 96.4441 175.975 96.7429 176.022 97.0351 175.869 97.4003 175.57 97.6991 175.271 97.9913 174.873 98.1705 174.541 98.1639L142.535 98.1639C138.006 98.2038 132.806 101.876 130.881 106.385 128.955 110.893 131.034 114.566 135.529 114.605L164.481 114.605C166.088 114.619 167.011 115.728 166.725 117.301 166.327 119.659 168.279 120.748 170.417 120.668 173.12 120.535 176.128 118.344 177.23 115.694 177.695 114.559 177.742 113.457 177.363 112.6 176.765 111.338 177.164 109.559 178.406 107.958L183.041 102.128C184.82 99.8904 185.338 97.3803 184.369 95.6937L171.347 73.0236ZM171.971 107.321 143.404 107.321C143.059 107.328 142.813 107.155 142.767 106.856 142.72 106.564 142.873 106.199 143.172 105.9 143.471 105.608 143.869 105.428 144.201 105.435L172.768 105.435C173.273 105.448 173.498 105.867 173.286 106.378 173.073 106.889 172.482 107.308 171.971 107.321ZM215.864 120.09C215.007 122.102 212.683 123.729 210.671 123.729L194.555 123.729 200.724 134.48C201.474 135.834 200.724 137.946 198.951 139.473 197.961 140.27 196.799 140.748 195.75 140.801 194.701 140.855 193.864 140.469 193.446 139.739L180.424 117.062C179.455 115.376 179.973 112.866 181.752 110.628L186.474 104.685C187.675 103.131 188.047 101.404 187.443 100.196 187.045 99.3326 187.084 98.217 187.556 97.0616 188.658 94.4121 191.666 92.2142 194.362 92.088 196.487 92.0083 198.433 93.0841 198.061 95.4148 197.769 96.9952 198.685 98.1174 200.299 98.1506L216.647 98.1506C217.61 98.1506 218.374 98.5358 218.765 99.2197 219.157 99.9037 219.144 100.827 218.739 101.796 218.334 102.766 217.55 103.689 216.574 104.373 215.598 105.057 214.509 105.442 213.546 105.442L192.802 105.442C192.284 105.455 191.706 105.873 191.487 106.385 191.268 106.896 191.5 107.314 192.005 107.328L203.015 107.328C205.027 107.328 205.963 108.961 205.106 110.966 204.25 112.972 201.926 114.612 199.914 114.612L190.239 114.612C189.721 114.612 189.116 115.03 188.897 115.555 188.711 116 188.871 116.385 189.276 116.465L213.759 116.465C215.771 116.465 216.707 118.098 215.85 120.104ZM270.387 100.614C271.264 102.188 271.204 104.319 270.221 106.531 268.103 111.079 262.817 114.652 258.289 114.599L238.613 114.599C236.601 114.599 235.665 112.965 236.522 110.953 237.378 108.941 239.702 107.314 241.714 107.314L256.894 107.314C257.233 107.321 257.625 107.148 257.923 106.849 258.222 106.557 258.375 106.192 258.329 105.893 258.282 105.601 258.036 105.422 257.691 105.428L233.109 105.428C232.591 105.442 232.013 105.86 231.794 106.371 231.575 106.883 231.807 107.301 232.312 107.314L233.268 107.314C235.28 107.314 236.216 108.948 235.36 110.953 234.503 112.959 232.179 114.599 230.167 114.599L223.739 114.599C221.714 114.599 220.24 113.603 219.801 111.936 219.363 110.269 220.007 108.144 221.534 106.245L222.79 104.685C223.991 103.131 224.363 101.404 223.759 100.196 223.361 99.3326 223.4 98.217 223.872 97.0616 224.974 94.4121 227.982 92.2142 230.685 92.088 232.816 92.0083 234.755 93.0841 234.384 95.4148 234.091 96.9952 235.008 98.1174 236.621 98.1506L265.573 98.1506C267.778 98.1506 269.517 99.0404 270.394 100.614ZM329.659 98.1573 297.646 98.1573C297.141 98.144 296.915 97.7256 297.128 97.2143 297.34 96.703 297.931 96.2847 298.443 96.2714 299.047 96.2714 299.724 96.0324 300.329 95.6074L325.09 78.2429C326.95 76.9614 328.005 74.9161 327.58 73.4221 327.315 72.5721 326.571 72.0342 325.549 71.9546 324.526 71.8749 323.324 72.26 322.255 73.0104L289.93 95.6871C287.526 97.3737 285.906 99.8838 285.78 102.122L285.448 107.952C285.328 109.552 284.213 111.332 282.539 112.593 281.424 113.457 280.54 114.552 280.036 115.688 278.88 118.337 280.016 120.535 282.606 120.661 284.677 120.741 287.553 119.652 289.166 117.295 290.215 115.728 292.081 114.619 293.702 114.599L322.653 114.599C327.182 114.559 332.381 110.887 334.307 106.378 336.233 101.869 334.154 98.1971 329.659 98.1506ZM320.987 107.321 292.42 107.321C292.075 107.328 291.829 107.155 291.782 106.856 291.736 106.564 291.889 106.199 292.188 105.9 292.486 105.608 292.885 105.428 293.217 105.435L321.783 105.435C322.288 105.448 322.514 105.867 322.301 106.378 322.089 106.889 321.498 107.308 320.987 107.321ZM378.512 98.1506 347.362 98.1506C343.823 98.1373 339.712 100.315 337.03 103.622 336.366 104.452 335.828 105.329 335.429 106.219 334.453 108.423 334.4 110.548 335.277 112.129 336.153 113.702 337.886 114.592 340.084 114.599L371.234 114.599C374.773 114.612 378.884 112.434 381.566 109.127 382.23 108.297 382.768 107.421 383.167 106.531 383.605 105.535 383.864 104.545 383.924 103.609 384.149 100.335 381.985 98.1573 378.512 98.1506ZM369.84 107.314 347.96 107.314C347.455 107.301 347.229 106.883 347.442 106.371 347.654 105.86 348.245 105.442 348.756 105.428L370.636 105.428C371.141 105.442 371.367 105.86 371.154 106.371 370.942 106.883 370.351 107.301 369.84 107.314ZM424.735 73.017C424.303 72.2666 423.427 71.8815 422.338 71.9612 421.249 72.0409 420.047 72.5721 419.058 73.4287 417.358 74.9228 416.667 76.968 417.437 78.2496L427.411 95.614C427.657 96.039 428.128 96.2781 428.733 96.2781 429.078 96.2714 429.323 96.4441 429.37 96.7429 429.416 97.0351 429.264 97.4003 428.965 97.6991 428.666 97.9913 428.274 98.1705 427.936 98.1639L395.929 98.1639C391.401 98.2038 386.201 101.876 384.276 106.385 382.35 110.893 384.428 114.566 388.924 114.605L417.876 114.605C419.483 114.619 420.406 115.728 420.12 117.301 419.722 119.659 421.674 120.748 423.812 120.668 426.515 120.535 429.516 118.344 430.625 115.694 431.09 114.559 431.136 113.457 430.758 112.6 430.16 111.338 430.559 109.559 431.8 107.958L436.435 102.128C438.215 99.8904 438.733 97.3803 437.763 95.6937L424.742 73.0236ZM425.359 107.321 396.793 107.321C396.447 107.328 396.202 107.155 396.155 106.856 396.109 106.564 396.261 106.199 396.56 105.9 396.859 105.608 397.257 105.428 397.589 105.435L426.156 105.435C426.661 105.448 426.887 105.867 426.674 106.378 426.462 106.889 425.871 107.308 425.359 107.321ZM462.346 110.96C461.489 112.972 459.165 114.605 457.153 114.605L440.871 114.605C436.376 114.566 434.297 110.893 436.223 106.385 438.142 101.869 443.341 98.2038 447.877 98.1573L459.564 98.1573C461.576 98.1573 462.512 99.7908 461.655 101.796 460.799 103.802 458.475 105.435 456.462 105.435L449.41 105.435C449.072 105.428 448.68 105.601 448.381 105.9 448.082 106.192 447.93 106.557 447.976 106.856 448.023 107.148 448.268 107.328 448.614 107.321L460.267 107.321C462.279 107.321 463.216 108.954 462.359 110.96ZM451.569 91.8158C452.08 89.1331 454.882 86.4504 457.83 85.8195 460.779 85.1887 462.758 86.8488 462.253 89.5249 461.742 92.2075 458.939 94.8902 455.991 95.5211 453.043 96.1519 451.064 94.4918 451.569 91.8158ZM487.991 108.828C488.356 109.592 488.256 110.608 487.725 111.63 486.683 113.53 484.451 114.944 482.552 114.917L475.334 114.917C473.701 114.944 471.822 116.073 470.772 117.653 469.152 119.984 466.297 121.06 464.238 120.98 461.649 120.854 460.513 118.656 461.669 116.006 462.18 114.851 463.09 113.735 464.225 112.872 465.859 111.664 466.954 109.937 467.074 108.383L467.412 102.44C467.539 100.202 469.159 97.6924 471.563 96.0058L503.894 73.3291C504.93 72.6053 506.099 72.2202 507.102 72.2666 508.104 72.3198 508.861 72.7979 509.173 73.5947 509.645 75.122 508.596 77.2336 506.697 78.5882L478.761 98.1772C476.503 99.7576 475.016 102.141 474.989 104.213 474.962 106.285 476.41 107.633 478.648 107.633L485.806 107.633C486.835 107.633 487.632 108.065 487.997 108.828ZM534.805 117.069 502.473 139.746C501.437 140.469 500.275 140.855 499.266 140.808 498.263 140.755 497.506 140.277 497.194 139.48 496.723 137.953 497.772 135.841 499.671 134.486L524.386 117.149C525.011 116.73 525.701 116.491 526.319 116.485 526.837 116.458 527.414 116.033 527.62 115.522 527.826 115.01 527.587 114.605 527.076 114.605L495.069 114.605C490.527 114.605 488.416 110.927 490.348 106.385 492.28 101.843 497.533 98.1639 502.075 98.1639L508.131 98.1639C509.452 98.144 510.375 98.8346 510.555 99.9701 510.734 101.106 510.136 102.507 508.994 103.642 507.852 104.778 506.338 105.468 505.03 105.448L503.748 105.448C503.23 105.462 502.653 105.88 502.433 106.391 502.214 106.903 502.447 107.321 502.951 107.334L531.525 107.334C532.043 107.321 532.62 106.903 532.84 106.391 533.059 105.88 532.826 105.462 532.322 105.448L526.764 105.448C525.442 105.468 524.519 104.778 524.34 103.642 524.161 102.507 524.758 101.106 525.9 99.9701 527.043 98.8346 528.557 98.144 529.865 98.1639L531.027 98.1639C532.667 98.1373 534.539 97.0085 535.595 95.4281 537.216 93.0973 540.071 92.0216 542.129 92.1013 544.719 92.2341 545.855 94.4254 544.706 97.0749 544.195 98.2303 543.285 99.3459 542.149 100.209 540.516 101.418 539.42 103.144 539.301 104.698L538.962 110.641C538.836 112.879 537.216 115.389 534.812 117.076Z" fill="#FFFFFF" transform="matrix(1 0 0 1.00003 0.0973354 0)"/><path d="M35.0011 152.913C33.9653 144.972 42.9098 136.166 59.7164 127.162 18.7456 145.576-3.76506 163.339 0.517945 177.111 10.3523 208.745 157.781 207.351 329.818 173.996 391.022 162.13 447.08 147.82 493.482 132.88 446.529 146.406 385.657 158.797 318.656 167.549 165.669 187.536 38.6732 180.982 35.0011 152.913Z" transform="matrix(1 0 0 1.00003 0.0973354 0)"/><path d="M623.506 56.3299C613.672 24.6954 466.237 26.0766 294.206 59.4442 240.871 69.7898 222.464 73.7541 180.431 84.8169 179.714 85.0028 179.959 86.0785 180.69 85.9324 225.14 76.8153 246.735 73.5549 305.375 65.8919 458.362 45.9046 585.358 52.4586 589.03 80.5272 590.066 88.469 562.083 107.181 545.27 116.186 586.241 97.7655 627.789 70.1019 623.506 56.3299Z" transform="matrix(1 0 0 1.00003 0.0973354 0)"/><path d="M89.2459 173.498 72.4924 171.387C71.8749 171.307 71.4764 170.968 71.43 170.484L70.248 157.296C70.1351 156.068 67.9903 156.068 66.6157 157.296L51.8344 170.484C51.2899 170.968 50.5395 171.307 49.8423 171.387L30.9041 173.498C29.1377 173.698 27.6171 175.358 28.3276 176.314L35.9507 186.58C36.2296 186.958 36.1698 187.509 35.7781 188.041L25.2532 202.537C24.2704 203.885 25.4789 204.914 27.2917 204.276L46.7877 197.437C47.5115 197.184 48.2154 197.184 48.6736 197.437L61.1043 204.276C62.2597 204.914 64.5307 203.885 64.9424 202.537L69.3715 188.041C69.5375 187.503 70.0355 186.958 70.7062 186.58L88.9139 176.314C90.6072 175.358 90.8064 173.691 89.2459 173.498Z" stroke="#000000" stroke-width="3.32016" stroke-miterlimit="10" fill="#FFFFFF" transform="matrix(1 0 0 1.00003 0.0973354 0)"/><path d="M110.661 190.75 101.145 189.548C100.793 189.502 100.568 189.309 100.541 189.037L99.8705 181.553C99.8107 180.856 98.5889 180.856 97.8053 181.553L89.412 189.037C89.0999 189.316 88.6815 189.508 88.2831 189.548L77.5324 190.75C76.5297 190.863 75.6665 191.806 76.0715 192.35L80.3944 198.174C80.5538 198.386 80.5206 198.698 80.2948 199.004L74.3185 207.231C73.7607 207.995 74.4447 208.579 75.4806 208.221L86.5433 204.336C86.955 204.19 87.3535 204.19 87.6124 204.336L94.6711 208.221C95.3285 208.579 96.6167 207.995 96.8491 207.231L99.3592 199.004C99.4521 198.698 99.7377 198.386 100.116 198.174L110.455 192.35C111.418 191.806 111.531 190.863 110.641 190.75Z" stroke="#000000" stroke-width="3.32016" stroke-miterlimit="10" fill="#FFFFFF" transform="matrix(1 0 0 1.00003 0.0973354 0)"/><path d="M394.462 59.1719C392.888 59.1719 391.434 58.4083 390.577 57.1267 389.707 55.8318 389.561 54.1651 390.179 52.6711L397.762 34.5164 380.305 34.5164C378.704 34.5031 377.263 33.7328 376.413 32.4513 375.557 31.1498 375.417 29.483 376.042 27.989 376.865 26.0101 378.83 24.6754 380.935 24.6622L399.993 24.6622C400.737 24.6622 402.277 23.706 402.769 22.524L410.784 3.3268C411.627 1.33471 413.606 0.00664032 415.711 0.00664032 417.285 0.00664032 418.739 0.770278 419.595 2.04522 420.465 3.34008 420.618 5.00016 420 6.50088L412.417 24.6622 429.875 24.6622C431.475 24.6754 432.916 25.4457 433.766 26.7273 434.622 28.0288 434.769 29.6955 434.144 31.1896 433.314 33.1751 431.349 34.5098 429.244 34.523L410.186 34.523C409.442 34.523 407.902 35.4793 407.41 36.6612L399.396 55.8584C398.546 57.8571 396.567 59.1786 394.468 59.1786Z" transform="matrix(1 0 0 1.00003 0.0973354 0)"/><path d="M429.868 28.8057 429.868 28.8057C429.868 28.8057 410.83 28.8057 410.83 28.8057L410.83 28.8057C408.267 28.8057 407.059 26.7074 408.141 24.1177L408.141 24.1177 416.156 4.92048 416.156 4.92048C416.335 4.4955 416.129 4.14356 415.704 4.14356 415.279 4.14356 414.788 4.48886 414.602 4.92048L414.602 4.92048 406.587 24.1177 406.587 24.1177C405.505 26.7074 402.55 28.8057 399.987 28.8057L399.987 28.8057C399.987 28.8057 380.949 28.8057 380.949 28.8057L380.949 28.8057C380.524 28.8057 380.032 29.1577 379.853 29.5893 379.674 30.0209 379.873 30.3728 380.291 30.3728L380.291 30.3728C380.291 30.3728 399.329 30.3728 399.329 30.3728L399.329 30.3728C401.892 30.3728 403.101 32.4712 402.018 35.0609L402.018 35.0609 394.004 54.2581 394.004 54.2581C393.824 54.6831 394.03 55.035 394.455 55.035 394.88 55.035 395.372 54.6897 395.557 54.2581L395.557 54.2581 403.572 35.0609 403.572 35.0609C404.655 32.4712 407.61 30.3728 410.173 30.3728L410.173 30.3728C410.173 30.3728 429.211 30.3728 429.211 30.3728L429.211 30.3728C429.636 30.3728 430.127 30.0209 430.306 29.5893 430.486 29.1577 430.286 28.8057 429.868 28.8057Z" fill="#FFFFFF" transform="matrix(1 0 0 1.00003 0.0973354 0)"/><path d="M441.316 89.9432C439.682 89.9432 438.182 89.153 437.299 87.8382 436.402 86.4969 436.249 84.7704 436.887 83.2099L447.379 58.0896C447.438 57.9435 447.485 57.8173 447.511 57.7044L422.803 57.7044C421.143 57.6911 419.655 56.8943 418.779 55.5729 417.889 54.2315 417.749 52.4984 418.394 50.9379 419.27 48.8462 421.422 47.3787 423.626 47.3588L448.541 47.3588C450.041 47.3588 452.518 45.7585 453.348 43.7797L463.827 18.6859C464.723 16.5809 466.881 15.1267 469.092 15.1267 470.726 15.1267 472.227 15.9169 473.11 17.2316 474.006 18.573 474.159 20.2995 473.515 21.8599L463.03 46.9737C462.97 47.1197 462.924 47.2459 462.897 47.3588L487.606 47.3588C489.266 47.3721 490.753 48.1689 491.63 49.4903 492.52 50.8317 492.659 52.5648 492.008 54.1253 491.132 56.217 488.987 57.6845 486.776 57.6978L461.861 57.6978C460.36 57.6978 457.884 59.2981 457.053 61.2769L446.575 86.3707C445.679 88.4757 443.521 89.9299 441.309 89.9299Z" transform="matrix(1 0 0 1.00003 0.0973354 0)"/><path d="M487.606 51.5156 487.606 51.5156C487.606 51.5156 462.724 51.5156 462.724 51.5156L462.724 51.5156C459.371 51.5156 457.797 48.7732 459.212 45.3933L459.212 45.3933 469.69 20.2995 469.69 20.2995C469.922 19.7417 469.657 19.2901 469.099 19.2901 468.541 19.2901 467.897 19.7417 467.658 20.2995L467.658 20.2995 457.18 45.3933 457.18 45.3933C455.765 48.7732 451.901 51.5156 448.547 51.5156L448.547 51.5156C448.547 51.5156 423.666 51.5156 423.666 51.5156L423.666 51.5156C423.108 51.5156 422.471 51.9738 422.238 52.5382 422.006 53.1027 422.258 53.5609 422.816 53.5609L422.816 53.5609C422.816 53.5609 447.697 53.5609 447.697 53.5609L447.697 53.5609C451.051 53.5609 452.624 56.3033 451.21 59.6899L451.21 59.6899 440.732 84.7837 440.732 84.7837C440.499 85.3414 440.765 85.793 441.323 85.793 441.88 85.793 442.524 85.3414 442.764 84.7837L442.764 84.7837 453.242 59.6899 453.242 59.6899C454.656 56.3099 458.521 53.5675 461.874 53.5675L461.874 53.5675C461.874 53.5675 486.756 53.5675 486.756 53.5675L486.756 53.5675C487.313 53.5675 487.951 53.1093 488.183 52.5449 488.416 51.9805 488.163 51.5223 487.606 51.5223Z" fill="#FFFFFF" transform="matrix(1 0 0 1.00003 0.0973354 0)"/><path d="M503.396 56.7416C501.869 56.7416 500.455 55.9979 499.618 54.7495 498.775 53.4878 498.622 51.8742 499.213 50.4333L504.412 37.976 492.612 37.976C491.059 37.9627 489.651 37.2124 488.827 35.9574 487.991 34.6957 487.851 33.0755 488.449 31.6345 489.233 29.7619 491.092 28.5003 493.084 28.487L507.6 28.487C507.885 28.4471 508.602 27.9358 508.802 27.471L514.904 12.8623C515.707 10.9765 517.58 9.72807 519.565 9.72807 521.099 9.72807 522.507 10.4718 523.344 11.7268 524.187 12.9885 524.333 14.6021 523.742 16.0497L518.543 28.5003 530.343 28.5003C531.903 28.5135 533.304 29.2705 534.134 30.5189 534.971 31.7872 535.11 33.4008 534.5 34.8484 533.723 36.7077 531.863 37.976 529.871 37.9893L515.356 37.9893C515.07 38.0291 514.353 38.5404 514.154 39.0053L508.051 53.6206C507.248 55.5065 505.382 56.7548 503.39 56.7548Z" transform="matrix(1 0 0 1.00003 0.0973354 0)"/><path d="M530.343 32.6372 530.343 32.6372C530.343 32.6372 515.854 32.6372 515.854 32.6372L515.854 32.6372C513.901 32.6372 512.985 31.0435 513.808 29.0713L513.808 29.0713 519.911 14.4626 519.911 14.4626C520.044 14.1372 519.891 13.8716 519.565 13.8716 519.24 13.8716 518.868 14.1372 518.729 14.4626L518.729 14.4626 512.626 29.0713 512.626 29.0713C511.803 31.0435 509.552 32.6372 507.6 32.6372L507.6 32.6372C507.6 32.6372 493.11 32.6372 493.11 32.6372L493.11 32.6372C492.785 32.6372 492.413 32.9028 492.28 33.2348 492.148 33.5668 492.294 33.8258 492.612 33.8325L492.612 33.8325C492.612 33.8325 507.102 33.8325 507.102 33.8325L507.102 33.8325C509.054 33.8325 509.97 35.4261 509.147 37.3983L509.147 37.3983 503.044 52.007 503.044 52.007C502.912 52.3324 503.064 52.598 503.39 52.598 503.715 52.598 504.087 52.3324 504.226 52.007L504.226 52.007 510.329 37.3983 510.329 37.3983C511.152 35.4261 513.403 33.8325 515.356 33.8325L515.356 33.8325C515.356 33.8325 529.845 33.8325 529.845 33.8325L529.845 33.8325C530.17 33.8325 530.542 33.5668 530.675 33.2348 530.808 32.9028 530.661 32.6438 530.343 32.6372Z" fill="#FFFFFF" transform="matrix(1 0 0 1.00003 0.0973354 0)"/></g></svg>